<?xml version="1.0" encoding="utf-8"?><svg xmlns="http://www.w3.org/2000/svg" xmlns:xlink="http://www.w3.org/1999/xlink" class="qr-svg qrcode" viewBox="0 0 1024 1024" preserveAspectRatio="xMinYMin"><rect x="0" y="0" width="1024" height="1024" fill="#ffffff" /><defs><style type="text/css"><![CDATA[.light { fill: none; } ]]></style>
</defs><symbol id="symbol-data" class="qrcode-symbol data"><path class="" d="M279.27272727273 0 h31.030303030303 v31.030303030303 h-31.030303030303Z  M341.33333333333 0 h31.030303030303 v31.030303030303 h-31.030303030303Z  M372.36363636364 0 h31.030303030303 v31.030303030303 h-31.030303030303Z  M403.39393939394 0 h31.030303030303 v31.030303030303 h-31.030303030303Z  M465.45454545455 0 h31.030303030303 v31.030303030303 h-31.030303030303Z  M527.51515151515 0 h31.030303030303 v31.030303030303 h-31.030303030303Z  M558.54545454545 0 h31.030303030303 v31.030303030303 h-31.030303030303Z  M589.57575757576 0 h31.030303030303 v31.030303030303 h-31.030303030303Z  M620.60606060606 0 h31.030303030303 v31.030303030303 h-31.030303030303Z  M682.66666666667 0 h31.030303030303 v31.030303030303 h-31.030303030303Z  M744.72727272727 0 h31.030303030303 v31.030303030303 h-31.030303030303Z  M279.27272727273 31.030303030303 h31.030303030303 v31.030303030303 h-31.030303030303Z  M434.42424242424 31.030303030303 h31.030303030303 v31.030303030303 h-31.030303030303Z  M589.57575757576 31.030303030303 h31.030303030303 v31.030303030303 h-31.030303030303Z  M620.60606060606 31.030303030303 h31.030303030303 v31.030303030303 h-31.030303030303Z  M651.63636363636 31.030303030303 h31.030303030303 v31.030303030303 h-31.030303030303Z  M682.66666666667 31.030303030303 h31.030303030303 v31.030303030303 h-31.030303030303Z  M744.72727272727 31.030303030303 h31.030303030303 v31.030303030303 h-31.030303030303Z  M248.24242424242 62.060606060606 h31.030303030303 v31.030303030303 h-31.030303030303Z  M310.30303030303 62.060606060606 h31.030303030303 v31.030303030303 h-31.030303030303Z  M434.42424242424 62.060606060606 h31.030303030303 v31.030303030303 h-31.030303030303Z  M465.45454545455 62.060606060606 h31.030303030303 v31.030303030303 h-31.030303030303Z  M496.48484848485 62.060606060606 h31.030303030303 v31.030303030303 h-31.030303030303Z  M589.57575757576 62.060606060606 h31.030303030303 v31.030303030303 h-31.030303030303Z  M620.60606060606 62.060606060606 h31.030303030303 v31.030303030303 h-31.030303030303Z  M651.63636363636 62.060606060606 h31.030303030303 v31.030303030303 h-31.030303030303Z  M682.66666666667 62.060606060606 h31.030303030303 v31.030303030303 h-31.030303030303Z  M713.69696969697 62.060606060606 h31.030303030303 v31.030303030303 h-31.030303030303Z  M744.72727272727 62.060606060606 h31.030303030303 v31.030303030303 h-31.030303030303Z  M248.24242424242 93.090909090909 h31.030303030303 v31.030303030303 h-31.030303030303Z  M372.36363636364 93.090909090909 h31.030303030303 v31.030303030303 h-31.030303030303Z  M496.48484848485 93.090909090909 h31.030303030303 v31.030303030303 h-31.030303030303Z  M620.60606060606 93.090909090909 h31.030303030303 v31.030303030303 h-31.030303030303Z  M651.63636363636 93.090909090909 h31.030303030303 v31.030303030303 h-31.030303030303Z  M713.69696969697 93.090909090909 h31.030303030303 v31.030303030303 h-31.030303030303Z  M310.30303030303 124.12121212121 h31.030303030303 v31.030303030303 h-31.030303030303Z  M434.42424242424 124.12121212121 h31.030303030303 v31.030303030303 h-31.030303030303Z  M589.57575757576 124.12121212121 h31.030303030303 v31.030303030303 h-31.030303030303Z  M651.63636363636 124.12121212121 h31.030303030303 v31.030303030303 h-31.030303030303Z  M713.69696969697 124.12121212121 h31.030303030303 v31.030303030303 h-31.030303030303Z  M744.72727272727 124.12121212121 h31.030303030303 v31.030303030303 h-31.030303030303Z  M279.27272727273 155.15151515152 h31.030303030303 v31.030303030303 h-31.030303030303Z  M372.36363636364 155.15151515152 h31.030303030303 v31.030303030303 h-31.030303030303Z  M403.39393939394 155.15151515152 h31.030303030303 v31.030303030303 h-31.030303030303Z  M434.42424242424 155.15151515152 h31.030303030303 v31.030303030303 h-31.030303030303Z  M465.45454545455 155.15151515152 h31.030303030303 v31.030303030303 h-31.030303030303Z  M558.54545454545 155.15151515152 h31.030303030303 v31.030303030303 h-31.030303030303Z  M589.57575757576 155.15151515152 h31.030303030303 v31.030303030303 h-31.030303030303Z  M682.66666666667 155.15151515152 h31.030303030303 v31.030303030303 h-31.030303030303Z  M713.69696969697 155.15151515152 h31.030303030303 v31.030303030303 h-31.030303030303Z  M248.24242424242 186.18181818182 h31.030303030303 v31.030303030303 h-31.030303030303Z  M310.30303030303 186.18181818182 h31.030303030303 v31.030303030303 h-31.030303030303Z  M372.36363636364 186.18181818182 h31.030303030303 v31.030303030303 h-31.030303030303Z  M434.42424242424 186.18181818182 h31.030303030303 v31.030303030303 h-31.030303030303Z  M496.48484848485 186.18181818182 h31.030303030303 v31.030303030303 h-31.030303030303Z  M558.54545454545 186.18181818182 h31.030303030303 v31.030303030303 h-31.030303030303Z  M620.60606060606 186.18181818182 h31.030303030303 v31.030303030303 h-31.030303030303Z  M682.66666666667 186.18181818182 h31.030303030303 v31.030303030303 h-31.030303030303Z  M744.72727272727 186.18181818182 h31.030303030303 v31.030303030303 h-31.030303030303Z  M279.27272727273 217.21212121212 h31.030303030303 v31.030303030303 h-31.030303030303Z  M310.30303030303 217.21212121212 h31.030303030303 v31.030303030303 h-31.030303030303Z  M465.45454545455 217.21212121212 h31.030303030303 v31.030303030303 h-31.030303030303Z  M496.48484848485 217.21212121212 h31.030303030303 v31.030303030303 h-31.030303030303Z  M589.57575757576 217.21212121212 h31.030303030303 v31.030303030303 h-31.030303030303Z  M620.60606060606 217.21212121212 h31.030303030303 v31.030303030303 h-31.030303030303Z  M682.66666666667 217.21212121212 h31.030303030303 v31.030303030303 h-31.030303030303Z  M744.72727272727 217.21212121212 h31.030303030303 v31.030303030303 h-31.030303030303Z  M93.090909090909 248.24242424242 h31.030303030303 v31.030303030303 h-31.030303030303Z  M124.12121212121 248.24242424242 h31.030303030303 v31.030303030303 h-31.030303030303Z  M186.18181818182 248.24242424242 h31.030303030303 v31.030303030303 h-31.030303030303Z  M217.21212121212 248.24242424242 h31.030303030303 v31.030303030303 h-31.030303030303Z  M341.33333333333 248.24242424242 h31.030303030303 v31.030303030303 h-31.030303030303Z  M527.51515151515 248.24242424242 h31.030303030303 v31.030303030303 h-31.030303030303Z  M558.54545454545 248.24242424242 h31.030303030303 v31.030303030303 h-31.030303030303Z  M589.57575757576 248.24242424242 h31.030303030303 v31.030303030303 h-31.030303030303Z  M620.60606060606 248.24242424242 h31.030303030303 v31.030303030303 h-31.030303030303Z  M682.66666666667 248.24242424242 h31.030303030303 v31.030303030303 h-31.030303030303Z  M744.72727272727 248.24242424242 h31.030303030303 v31.030303030303 h-31.030303030303Z  M899.87878787879 248.24242424242 h31.030303030303 v31.030303030303 h-31.030303030303Z  M930.90909090909 248.24242424242 h31.030303030303 v31.030303030303 h-31.030303030303Z  M31.030303030303 279.27272727273 h31.030303030303 v31.030303030303 h-31.030303030303Z  M62.060606060606 279.27272727273 h31.030303030303 v31.030303030303 h-31.030303030303Z  M155.15151515152 279.27272727273 h31.030303030303 v31.030303030303 h-31.030303030303Z  M248.24242424242 279.27272727273 h31.030303030303 v31.030303030303 h-31.030303030303Z  M279.27272727273 279.27272727273 h31.030303030303 v31.030303030303 h-31.030303030303Z  M310.30303030303 279.27272727273 h31.030303030303 v31.030303030303 h-31.030303030303Z  M372.36363636364 279.27272727273 h31.030303030303 v31.030303030303 h-31.030303030303Z  M527.51515151515 279.27272727273 h31.030303030303 v31.030303030303 h-31.030303030303Z  M558.54545454545 279.27272727273 h31.030303030303 v31.030303030303 h-31.030303030303Z  M589.57575757576 279.27272727273 h31.030303030303 v31.030303030303 h-31.030303030303Z  M651.63636363636 279.27272727273 h31.030303030303 v31.030303030303 h-31.030303030303Z  M713.69696969697 279.27272727273 h31.030303030303 v31.030303030303 h-31.030303030303Z  M775.75757575758 279.27272727273 h31.030303030303 v31.030303030303 h-31.030303030303Z  M837.81818181818 279.27272727273 h31.030303030303 v31.030303030303 h-31.030303030303Z  M868.84848484848 279.27272727273 h31.030303030303 v31.030303030303 h-31.030303030303Z  M899.87878787879 279.27272727273 h31.030303030303 v31.030303030303 h-31.030303030303Z  M961.93939393939 279.27272727273 h31.030303030303 v31.030303030303 h-31.030303030303Z  M62.060606060606 310.30303030303 h31.030303030303 v31.030303030303 h-31.030303030303Z  M124.12121212121 310.30303030303 h31.030303030303 v31.030303030303 h-31.030303030303Z  M155.15151515152 310.30303030303 h31.030303030303 v31.030303030303 h-31.030303030303Z  M186.18181818182 310.30303030303 h31.030303030303 v31.030303030303 h-31.030303030303Z  M217.21212121212 310.30303030303 h31.030303030303 v31.030303030303 h-31.030303030303Z  M279.27272727273 310.30303030303 h31.030303030303 v31.030303030303 h-31.030303030303Z  M372.36363636364 310.30303030303 h31.030303030303 v31.030303030303 h-31.030303030303Z  M403.39393939394 310.30303030303 h31.030303030303 v31.030303030303 h-31.030303030303Z  M496.48484848485 310.30303030303 h31.030303030303 v31.030303030303 h-31.030303030303Z  M527.51515151515 310.30303030303 h31.030303030303 v31.030303030303 h-31.030303030303Z  M558.54545454545 310.30303030303 h31.030303030303 v31.030303030303 h-31.030303030303Z  M589.57575757576 310.30303030303 h31.030303030303 v31.030303030303 h-31.030303030303Z  M620.60606060606 310.30303030303 h31.030303030303 v31.030303030303 h-31.030303030303Z  M682.66666666667 310.30303030303 h31.030303030303 v31.030303030303 h-31.030303030303Z  M713.69696969697 310.30303030303 h31.030303030303 v31.030303030303 h-31.030303030303Z  M775.75757575758 310.30303030303 h31.030303030303 v31.030303030303 h-31.030303030303Z  M837.81818181818 310.30303030303 h31.030303030303 v31.030303030303 h-31.030303030303Z  M961.93939393939 310.30303030303 h31.030303030303 v31.030303030303 h-31.030303030303Z  M992.9696969697 310.30303030303 h31.030303030303 v31.030303030303 h-31.030303030303Z  M0 341.33333333333 h31.030303030303 v31.030303030303 h-31.030303030303Z  M31.030303030303 341.33333333333 h31.030303030303 v31.030303030303 h-31.030303030303Z  M155.15151515152 341.33333333333 h31.030303030303 v31.030303030303 h-31.030303030303Z  M248.24242424242 341.33333333333 h31.030303030303 v31.030303030303 h-31.030303030303Z  M310.30303030303 341.33333333333 h31.030303030303 v31.030303030303 h-31.030303030303Z  M341.33333333333 341.33333333333 h31.030303030303 v31.030303030303 h-31.030303030303Z  M496.48484848485 341.33333333333 h31.030303030303 v31.030303030303 h-31.030303030303Z  M527.51515151515 341.33333333333 h31.030303030303 v31.030303030303 h-31.030303030303Z  M589.57575757576 341.33333333333 h31.030303030303 v31.030303030303 h-31.030303030303Z  M620.60606060606 341.33333333333 h31.030303030303 v31.030303030303 h-31.030303030303Z  M651.63636363636 341.33333333333 h31.030303030303 v31.030303030303 h-31.030303030303Z  M682.66666666667 341.33333333333 h31.030303030303 v31.030303030303 h-31.030303030303Z  M713.69696969697 341.33333333333 h31.030303030303 v31.030303030303 h-31.030303030303Z  M744.72727272727 341.33333333333 h31.030303030303 v31.030303030303 h-31.030303030303Z  M775.75757575758 341.33333333333 h31.030303030303 v31.030303030303 h-31.030303030303Z  M806.78787878788 341.33333333333 h31.030303030303 v31.030303030303 h-31.030303030303Z  M837.81818181818 341.33333333333 h31.030303030303 v31.030303030303 h-31.030303030303Z  M868.84848484848 341.33333333333 h31.030303030303 v31.030303030303 h-31.030303030303Z  M930.90909090909 341.33333333333 h31.030303030303 v31.030303030303 h-31.030303030303Z  M961.93939393939 341.33333333333 h31.030303030303 v31.030303030303 h-31.030303030303Z  M0 372.36363636364 h31.030303030303 v31.030303030303 h-31.030303030303Z  M31.030303030303 372.36363636364 h31.030303030303 v31.030303030303 h-31.030303030303Z  M93.090909090909 372.36363636364 h31.030303030303 v31.030303030303 h-31.030303030303Z  M155.15151515152 372.36363636364 h31.030303030303 v31.030303030303 h-31.030303030303Z  M186.18181818182 372.36363636364 h31.030303030303 v31.030303030303 h-31.030303030303Z  M217.21212121212 372.36363636364 h31.030303030303 v31.030303030303 h-31.030303030303Z  M248.24242424242 372.36363636364 h31.030303030303 v31.030303030303 h-31.030303030303Z  M279.27272727273 372.36363636364 h31.030303030303 v31.030303030303 h-31.030303030303Z  M372.36363636364 372.36363636364 h31.030303030303 v31.030303030303 h-31.030303030303Z  M465.45454545455 372.36363636364 h31.030303030303 v31.030303030303 h-31.030303030303Z  M589.57575757576 372.36363636364 h31.030303030303 v31.030303030303 h-31.030303030303Z  M651.63636363636 372.36363636364 h31.030303030303 v31.030303030303 h-31.030303030303Z  M744.72727272727 372.36363636364 h31.030303030303 v31.030303030303 h-31.030303030303Z  M806.78787878788 372.36363636364 h31.030303030303 v31.030303030303 h-31.030303030303Z  M961.93939393939 372.36363636364 h31.030303030303 v31.030303030303 h-31.030303030303Z  M992.9696969697 372.36363636364 h31.030303030303 v31.030303030303 h-31.030303030303Z  M93.090909090909 403.39393939394 h31.030303030303 v31.030303030303 h-31.030303030303Z  M155.15151515152 403.39393939394 h31.030303030303 v31.030303030303 h-31.030303030303Z  M248.24242424242 403.39393939394 h31.030303030303 v31.030303030303 h-31.030303030303Z  M279.27272727273 403.39393939394 h31.030303030303 v31.030303030303 h-31.030303030303Z  M341.33333333333 403.39393939394 h31.030303030303 v31.030303030303 h-31.030303030303Z  M372.36363636364 403.39393939394 h31.030303030303 v31.030303030303 h-31.030303030303Z  M434.42424242424 403.39393939394 h31.030303030303 v31.030303030303 h-31.030303030303Z  M527.51515151515 403.39393939394 h31.030303030303 v31.030303030303 h-31.030303030303Z  M558.54545454545 403.39393939394 h31.030303030303 v31.030303030303 h-31.030303030303Z  M589.57575757576 403.39393939394 h31.030303030303 v31.030303030303 h-31.030303030303Z  M651.63636363636 403.39393939394 h31.030303030303 v31.030303030303 h-31.030303030303Z  M713.69696969697 403.39393939394 h31.030303030303 v31.030303030303 h-31.030303030303Z  M744.72727272727 403.39393939394 h31.030303030303 v31.030303030303 h-31.030303030303Z  M775.75757575758 403.39393939394 h31.030303030303 v31.030303030303 h-31.030303030303Z  M930.90909090909 403.39393939394 h31.030303030303 v31.030303030303 h-31.030303030303Z  M961.93939393939 403.39393939394 h31.030303030303 v31.030303030303 h-31.030303030303Z  M124.12121212121 434.42424242424 h31.030303030303 v31.030303030303 h-31.030303030303Z  M186.18181818182 434.42424242424 h31.030303030303 v31.030303030303 h-31.030303030303Z  M279.27272727273 434.42424242424 h31.030303030303 v31.030303030303 h-31.030303030303Z  M310.30303030303 434.42424242424 h31.030303030303 v31.030303030303 h-31.030303030303Z  M372.36363636364 434.42424242424 h31.030303030303 v31.030303030303 h-31.030303030303Z  M403.39393939394 434.42424242424 h31.030303030303 v31.030303030303 h-31.030303030303Z  M434.42424242424 434.42424242424 h31.030303030303 v31.030303030303 h-31.030303030303Z  M465.45454545455 434.42424242424 h31.030303030303 v31.030303030303 h-31.030303030303Z  M806.78787878788 434.42424242424 h31.030303030303 v31.030303030303 h-31.030303030303Z  M837.81818181818 434.42424242424 h31.030303030303 v31.030303030303 h-31.030303030303Z  M868.84848484848 434.42424242424 h31.030303030303 v31.030303030303 h-31.030303030303Z  M0 465.45454545455 h31.030303030303 v31.030303030303 h-31.030303030303Z  M62.060606060606 465.45454545455 h31.030303030303 v31.030303030303 h-31.030303030303Z  M124.12121212121 465.45454545455 h31.030303030303 v31.030303030303 h-31.030303030303Z  M155.15151515152 465.45454545455 h31.030303030303 v31.030303030303 h-31.030303030303Z  M279.27272727273 465.45454545455 h31.030303030303 v31.030303030303 h-31.030303030303Z  M465.45454545455 465.45454545455 h31.030303030303 v31.030303030303 h-31.030303030303Z  M620.60606060606 465.45454545455 h31.030303030303 v31.030303030303 h-31.030303030303Z  M713.69696969697 465.45454545455 h31.030303030303 v31.030303030303 h-31.030303030303Z  M775.75757575758 465.45454545455 h31.030303030303 v31.030303030303 h-31.030303030303Z  M899.87878787879 465.45454545455 h31.030303030303 v31.030303030303 h-31.030303030303Z  M930.90909090909 465.45454545455 h31.030303030303 v31.030303030303 h-31.030303030303Z  M62.060606060606 496.48484848485 h31.030303030303 v31.030303030303 h-31.030303030303Z  M124.12121212121 496.48484848485 h31.030303030303 v31.030303030303 h-31.030303030303Z  M186.18181818182 496.48484848485 h31.030303030303 v31.030303030303 h-31.030303030303Z  M217.21212121212 496.48484848485 h31.030303030303 v31.030303030303 h-31.030303030303Z  M248.24242424242 496.48484848485 h31.030303030303 v31.030303030303 h-31.030303030303Z  M310.30303030303 496.48484848485 h31.030303030303 v31.030303030303 h-31.030303030303Z  M341.33333333333 496.48484848485 h31.030303030303 v31.030303030303 h-31.030303030303Z  M372.36363636364 496.48484848485 h31.030303030303 v31.030303030303 h-31.030303030303Z  M403.39393939394 496.48484848485 h31.030303030303 v31.030303030303 h-31.030303030303Z  M434.42424242424 496.48484848485 h31.030303030303 v31.030303030303 h-31.030303030303Z  M496.48484848485 496.48484848485 h31.030303030303 v31.030303030303 h-31.030303030303Z  M527.51515151515 496.48484848485 h31.030303030303 v31.030303030303 h-31.030303030303Z  M558.54545454545 496.48484848485 h31.030303030303 v31.030303030303 h-31.030303030303Z  M775.75757575758 496.48484848485 h31.030303030303 v31.030303030303 h-31.030303030303Z  M806.78787878788 496.48484848485 h31.030303030303 v31.030303030303 h-31.030303030303Z  M837.81818181818 496.48484848485 h31.030303030303 v31.030303030303 h-31.030303030303Z  M868.84848484848 496.48484848485 h31.030303030303 v31.030303030303 h-31.030303030303Z  M899.87878787879 496.48484848485 h31.030303030303 v31.030303030303 h-31.030303030303Z  M961.93939393939 496.48484848485 h31.030303030303 v31.030303030303 h-31.030303030303Z  M0 527.51515151515 h31.030303030303 v31.030303030303 h-31.030303030303Z  M62.060606060606 527.51515151515 h31.030303030303 v31.030303030303 h-31.030303030303Z  M124.12121212121 527.51515151515 h31.030303030303 v31.030303030303 h-31.030303030303Z  M155.15151515152 527.51515151515 h31.030303030303 v31.030303030303 h-31.030303030303Z  M372.36363636364 527.51515151515 h31.030303030303 v31.030303030303 h-31.030303030303Z  M403.39393939394 527.51515151515 h31.030303030303 v31.030303030303 h-31.030303030303Z  M496.48484848485 527.51515151515 h31.030303030303 v31.030303030303 h-31.030303030303Z  M558.54545454545 527.51515151515 h31.030303030303 v31.030303030303 h-31.030303030303Z  M620.60606060606 527.51515151515 h31.030303030303 v31.030303030303 h-31.030303030303Z  M651.63636363636 527.51515151515 h31.030303030303 v31.030303030303 h-31.030303030303Z  M682.66666666667 527.51515151515 h31.030303030303 v31.030303030303 h-31.030303030303Z  M744.72727272727 527.51515151515 h31.030303030303 v31.030303030303 h-31.030303030303Z  M806.78787878788 527.51515151515 h31.030303030303 v31.030303030303 h-31.030303030303Z  M868.84848484848 527.51515151515 h31.030303030303 v31.030303030303 h-31.030303030303Z  M899.87878787879 527.51515151515 h31.030303030303 v31.030303030303 h-31.030303030303Z  M961.93939393939 527.51515151515 h31.030303030303 v31.030303030303 h-31.030303030303Z  M992.9696969697 527.51515151515 h31.030303030303 v31.030303030303 h-31.030303030303Z  M0 558.54545454545 h31.030303030303 v31.030303030303 h-31.030303030303Z  M31.030303030303 558.54545454545 h31.030303030303 v31.030303030303 h-31.030303030303Z  M93.090909090909 558.54545454545 h31.030303030303 v31.030303030303 h-31.030303030303Z  M155.15151515152 558.54545454545 h31.030303030303 v31.030303030303 h-31.030303030303Z  M186.18181818182 558.54545454545 h31.030303030303 v31.030303030303 h-31.030303030303Z  M248.24242424242 558.54545454545 h31.030303030303 v31.030303030303 h-31.030303030303Z  M279.27272727273 558.54545454545 h31.030303030303 v31.030303030303 h-31.030303030303Z  M372.36363636364 558.54545454545 h31.030303030303 v31.030303030303 h-31.030303030303Z  M403.39393939394 558.54545454545 h31.030303030303 v31.030303030303 h-31.030303030303Z  M496.48484848485 558.54545454545 h31.030303030303 v31.030303030303 h-31.030303030303Z  M527.51515151515 558.54545454545 h31.030303030303 v31.030303030303 h-31.030303030303Z  M558.54545454545 558.54545454545 h31.030303030303 v31.030303030303 h-31.030303030303Z  M589.57575757576 558.54545454545 h31.030303030303 v31.030303030303 h-31.030303030303Z  M620.60606060606 558.54545454545 h31.030303030303 v31.030303030303 h-31.030303030303Z  M651.63636363636 558.54545454545 h31.030303030303 v31.030303030303 h-31.030303030303Z  M682.66666666667 558.54545454545 h31.030303030303 v31.030303030303 h-31.030303030303Z  M713.69696969697 558.54545454545 h31.030303030303 v31.030303030303 h-31.030303030303Z  M806.78787878788 558.54545454545 h31.030303030303 v31.030303030303 h-31.030303030303Z  M837.81818181818 558.54545454545 h31.030303030303 v31.030303030303 h-31.030303030303Z  M899.87878787879 558.54545454545 h31.030303030303 v31.030303030303 h-31.030303030303Z  M930.90909090909 558.54545454545 h31.030303030303 v31.030303030303 h-31.030303030303Z  M961.93939393939 558.54545454545 h31.030303030303 v31.030303030303 h-31.030303030303Z  M992.9696969697 558.54545454545 h31.030303030303 v31.030303030303 h-31.030303030303Z  M31.030303030303 589.57575757576 h31.030303030303 v31.030303030303 h-31.030303030303Z  M62.060606060606 589.57575757576 h31.030303030303 v31.030303030303 h-31.030303030303Z  M155.15151515152 589.57575757576 h31.030303030303 v31.030303030303 h-31.030303030303Z  M248.24242424242 589.57575757576 h31.030303030303 v31.030303030303 h-31.030303030303Z  M341.33333333333 589.57575757576 h31.030303030303 v31.030303030303 h-31.030303030303Z  M372.36363636364 589.57575757576 h31.030303030303 v31.030303030303 h-31.030303030303Z  M403.39393939394 589.57575757576 h31.030303030303 v31.030303030303 h-31.030303030303Z  M434.42424242424 589.57575757576 h31.030303030303 v31.030303030303 h-31.030303030303Z  M527.51515151515 589.57575757576 h31.030303030303 v31.030303030303 h-31.030303030303Z  M558.54545454545 589.57575757576 h31.030303030303 v31.030303030303 h-31.030303030303Z  M620.60606060606 589.57575757576 h31.030303030303 v31.030303030303 h-31.030303030303Z  M682.66666666667 589.57575757576 h31.030303030303 v31.030303030303 h-31.030303030303Z  M713.69696969697 589.57575757576 h31.030303030303 v31.030303030303 h-31.030303030303Z  M744.72727272727 589.57575757576 h31.030303030303 v31.030303030303 h-31.030303030303Z  M806.78787878788 589.57575757576 h31.030303030303 v31.030303030303 h-31.030303030303Z  M899.87878787879 589.57575757576 h31.030303030303 v31.030303030303 h-31.030303030303Z  M930.90909090909 589.57575757576 h31.030303030303 v31.030303030303 h-31.030303030303Z  M961.93939393939 589.57575757576 h31.030303030303 v31.030303030303 h-31.030303030303Z  M0 620.60606060606 h31.030303030303 v31.030303030303 h-31.030303030303Z  M93.090909090909 620.60606060606 h31.030303030303 v31.030303030303 h-31.030303030303Z  M155.15151515152 620.60606060606 h31.030303030303 v31.030303030303 h-31.030303030303Z  M186.18181818182 620.60606060606 h31.030303030303 v31.030303030303 h-31.030303030303Z  M217.21212121212 620.60606060606 h31.030303030303 v31.030303030303 h-31.030303030303Z  M248.24242424242 620.60606060606 h31.030303030303 v31.030303030303 h-31.030303030303Z  M341.33333333333 620.60606060606 h31.030303030303 v31.030303030303 h-31.030303030303Z  M372.36363636364 620.60606060606 h31.030303030303 v31.030303030303 h-31.030303030303Z  M589.57575757576 620.60606060606 h31.030303030303 v31.030303030303 h-31.030303030303Z  M744.72727272727 620.60606060606 h31.030303030303 v31.030303030303 h-31.030303030303Z  M775.75757575758 620.60606060606 h31.030303030303 v31.030303030303 h-31.030303030303Z  M837.81818181818 620.60606060606 h31.030303030303 v31.030303030303 h-31.030303030303Z  M899.87878787879 620.60606060606 h31.030303030303 v31.030303030303 h-31.030303030303Z  M961.93939393939 620.60606060606 h31.030303030303 v31.030303030303 h-31.030303030303Z  M0 651.63636363636 h31.030303030303 v31.030303030303 h-31.030303030303Z  M248.24242424242 651.63636363636 h31.030303030303 v31.030303030303 h-31.030303030303Z  M310.30303030303 651.63636363636 h31.030303030303 v31.030303030303 h-31.030303030303Z  M341.33333333333 651.63636363636 h31.030303030303 v31.030303030303 h-31.030303030303Z  M434.42424242424 651.63636363636 h31.030303030303 v31.030303030303 h-31.030303030303Z  M496.48484848485 651.63636363636 h31.030303030303 v31.030303030303 h-31.030303030303Z  M589.57575757576 651.63636363636 h31.030303030303 v31.030303030303 h-31.030303030303Z  M682.66666666667 651.63636363636 h31.030303030303 v31.030303030303 h-31.030303030303Z  M806.78787878788 651.63636363636 h31.030303030303 v31.030303030303 h-31.030303030303Z  M837.81818181818 651.63636363636 h31.030303030303 v31.030303030303 h-31.030303030303Z  M868.84848484848 651.63636363636 h31.030303030303 v31.030303030303 h-31.030303030303Z  M930.90909090909 651.63636363636 h31.030303030303 v31.030303030303 h-31.030303030303Z  M0 682.66666666667 h31.030303030303 v31.030303030303 h-31.030303030303Z  M93.090909090909 682.66666666667 h31.030303030303 v31.030303030303 h-31.030303030303Z  M124.12121212121 682.66666666667 h31.030303030303 v31.030303030303 h-31.030303030303Z  M186.18181818182 682.66666666667 h31.030303030303 v31.030303030303 h-31.030303030303Z  M217.21212121212 682.66666666667 h31.030303030303 v31.030303030303 h-31.030303030303Z  M248.24242424242 682.66666666667 h31.030303030303 v31.030303030303 h-31.030303030303Z  M341.33333333333 682.66666666667 h31.030303030303 v31.030303030303 h-31.030303030303Z  M403.39393939394 682.66666666667 h31.030303030303 v31.030303030303 h-31.030303030303Z  M434.42424242424 682.66666666667 h31.030303030303 v31.030303030303 h-31.030303030303Z  M496.48484848485 682.66666666667 h31.030303030303 v31.030303030303 h-31.030303030303Z  M527.51515151515 682.66666666667 h31.030303030303 v31.030303030303 h-31.030303030303Z  M620.60606060606 682.66666666667 h31.030303030303 v31.030303030303 h-31.030303030303Z  M651.63636363636 682.66666666667 h31.030303030303 v31.030303030303 h-31.030303030303Z  M744.72727272727 682.66666666667 h31.030303030303 v31.030303030303 h-31.030303030303Z  M806.78787878788 682.66666666667 h31.030303030303 v31.030303030303 h-31.030303030303Z  M837.81818181818 682.66666666667 h31.030303030303 v31.030303030303 h-31.030303030303Z  M899.87878787879 682.66666666667 h31.030303030303 v31.030303030303 h-31.030303030303Z  M992.9696969697 682.66666666667 h31.030303030303 v31.030303030303 h-31.030303030303Z  M0 713.69696969697 h31.030303030303 v31.030303030303 h-31.030303030303Z  M124.12121212121 713.69696969697 h31.030303030303 v31.030303030303 h-31.030303030303Z  M155.15151515152 713.69696969697 h31.030303030303 v31.030303030303 h-31.030303030303Z  M217.21212121212 713.69696969697 h31.030303030303 v31.030303030303 h-31.030303030303Z  M248.24242424242 713.69696969697 h31.030303030303 v31.030303030303 h-31.030303030303Z  M279.27272727273 713.69696969697 h31.030303030303 v31.030303030303 h-31.030303030303Z  M310.30303030303 713.69696969697 h31.030303030303 v31.030303030303 h-31.030303030303Z  M434.42424242424 713.69696969697 h31.030303030303 v31.030303030303 h-31.030303030303Z  M496.48484848485 713.69696969697 h31.030303030303 v31.030303030303 h-31.030303030303Z  M558.54545454545 713.69696969697 h31.030303030303 v31.030303030303 h-31.030303030303Z  M589.57575757576 713.69696969697 h31.030303030303 v31.030303030303 h-31.030303030303Z  M620.60606060606 713.69696969697 h31.030303030303 v31.030303030303 h-31.030303030303Z  M682.66666666667 713.69696969697 h31.030303030303 v31.030303030303 h-31.030303030303Z  M837.81818181818 713.69696969697 h31.030303030303 v31.030303030303 h-31.030303030303Z  M930.90909090909 713.69696969697 h31.030303030303 v31.030303030303 h-31.030303030303Z  M961.93939393939 713.69696969697 h31.030303030303 v31.030303030303 h-31.030303030303Z  M992.9696969697 713.69696969697 h31.030303030303 v31.030303030303 h-31.030303030303Z  M0 744.72727272727 h31.030303030303 v31.030303030303 h-31.030303030303Z  M31.030303030303 744.72727272727 h31.030303030303 v31.030303030303 h-31.030303030303Z  M62.060606060606 744.72727272727 h31.030303030303 v31.030303030303 h-31.030303030303Z  M124.12121212121 744.72727272727 h31.030303030303 v31.030303030303 h-31.030303030303Z  M186.18181818182 744.72727272727 h31.030303030303 v31.030303030303 h-31.030303030303Z  M279.27272727273 744.72727272727 h31.030303030303 v31.030303030303 h-31.030303030303Z  M341.33333333333 744.72727272727 h31.030303030303 v31.030303030303 h-31.030303030303Z  M372.36363636364 744.72727272727 h31.030303030303 v31.030303030303 h-31.030303030303Z  M465.45454545455 744.72727272727 h31.030303030303 v31.030303030303 h-31.030303030303Z  M496.48484848485 744.72727272727 h31.030303030303 v31.030303030303 h-31.030303030303Z  M527.51515151515 744.72727272727 h31.030303030303 v31.030303030303 h-31.030303030303Z  M899.87878787879 744.72727272727 h31.030303030303 v31.030303030303 h-31.030303030303Z  M248.24242424242 775.75757575758 h31.030303030303 v31.030303030303 h-31.030303030303Z  M341.33333333333 775.75757575758 h31.030303030303 v31.030303030303 h-31.030303030303Z  M372.36363636364 775.75757575758 h31.030303030303 v31.030303030303 h-31.030303030303Z  M403.39393939394 775.75757575758 h31.030303030303 v31.030303030303 h-31.030303030303Z  M434.42424242424 775.75757575758 h31.030303030303 v31.030303030303 h-31.030303030303Z  M465.45454545455 775.75757575758 h31.030303030303 v31.030303030303 h-31.030303030303Z  M930.90909090909 775.75757575758 h31.030303030303 v31.030303030303 h-31.030303030303Z  M248.24242424242 806.78787878788 h31.030303030303 v31.030303030303 h-31.030303030303Z  M310.30303030303 806.78787878788 h31.030303030303 v31.030303030303 h-31.030303030303Z  M341.33333333333 806.78787878788 h31.030303030303 v31.030303030303 h-31.030303030303Z  M372.36363636364 806.78787878788 h31.030303030303 v31.030303030303 h-31.030303030303Z  M403.39393939394 806.78787878788 h31.030303030303 v31.030303030303 h-31.030303030303Z  M527.51515151515 806.78787878788 h31.030303030303 v31.030303030303 h-31.030303030303Z  M558.54545454545 806.78787878788 h31.030303030303 v31.030303030303 h-31.030303030303Z  M651.63636363636 806.78787878788 h31.030303030303 v31.030303030303 h-31.030303030303Z  M682.66666666667 806.78787878788 h31.030303030303 v31.030303030303 h-31.030303030303Z  M713.69696969697 806.78787878788 h31.030303030303 v31.030303030303 h-31.030303030303Z  M899.87878787879 806.78787878788 h31.030303030303 v31.030303030303 h-31.030303030303Z  M930.90909090909 806.78787878788 h31.030303030303 v31.030303030303 h-31.030303030303Z  M310.30303030303 837.81818181818 h31.030303030303 v31.030303030303 h-31.030303030303Z  M403.39393939394 837.81818181818 h31.030303030303 v31.030303030303 h-31.030303030303Z  M434.42424242424 837.81818181818 h31.030303030303 v31.030303030303 h-31.030303030303Z  M496.48484848485 837.81818181818 h31.030303030303 v31.030303030303 h-31.030303030303Z  M527.51515151515 837.81818181818 h31.030303030303 v31.030303030303 h-31.030303030303Z  M558.54545454545 837.81818181818 h31.030303030303 v31.030303030303 h-31.030303030303Z  M589.57575757576 837.81818181818 h31.030303030303 v31.030303030303 h-31.030303030303Z  M620.60606060606 837.81818181818 h31.030303030303 v31.030303030303 h-31.030303030303Z  M713.69696969697 837.81818181818 h31.030303030303 v31.030303030303 h-31.030303030303Z  M899.87878787879 837.81818181818 h31.030303030303 v31.030303030303 h-31.030303030303Z  M930.90909090909 837.81818181818 h31.030303030303 v31.030303030303 h-31.030303030303Z  M961.93939393939 837.81818181818 h31.030303030303 v31.030303030303 h-31.030303030303Z  M248.24242424242 868.84848484848 h31.030303030303 v31.030303030303 h-31.030303030303Z  M341.33333333333 868.84848484848 h31.030303030303 v31.030303030303 h-31.030303030303Z  M372.36363636364 868.84848484848 h31.030303030303 v31.030303030303 h-31.030303030303Z  M465.45454545455 868.84848484848 h31.030303030303 v31.030303030303 h-31.030303030303Z  M496.48484848485 868.84848484848 h31.030303030303 v31.030303030303 h-31.030303030303Z  M558.54545454545 868.84848484848 h31.030303030303 v31.030303030303 h-31.030303030303Z  M651.63636363636 868.84848484848 h31.030303030303 v31.030303030303 h-31.030303030303Z  M713.69696969697 868.84848484848 h31.030303030303 v31.030303030303 h-31.030303030303Z  M961.93939393939 868.84848484848 h31.030303030303 v31.030303030303 h-31.030303030303Z  M248.24242424242 899.87878787879 h31.030303030303 v31.030303030303 h-31.030303030303Z  M341.33333333333 899.87878787879 h31.030303030303 v31.030303030303 h-31.030303030303Z  M372.36363636364 899.87878787879 h31.030303030303 v31.030303030303 h-31.030303030303Z  M403.39393939394 899.87878787879 h31.030303030303 v31.030303030303 h-31.030303030303Z  M496.48484848485 899.87878787879 h31.030303030303 v31.030303030303 h-31.030303030303Z  M651.63636363636 899.87878787879 h31.030303030303 v31.030303030303 h-31.030303030303Z  M775.75757575758 899.87878787879 h31.030303030303 v31.030303030303 h-31.030303030303Z  M837.81818181818 899.87878787879 h31.030303030303 v31.030303030303 h-31.030303030303Z  M961.93939393939 899.87878787879 h31.030303030303 v31.030303030303 h-31.030303030303Z  M372.36363636364 930.90909090909 h31.030303030303 v31.030303030303 h-31.030303030303Z  M651.63636363636 930.90909090909 h31.030303030303 v31.030303030303 h-31.030303030303Z  M682.66666666667 930.90909090909 h31.030303030303 v31.030303030303 h-31.030303030303Z  M713.69696969697 930.90909090909 h31.030303030303 v31.030303030303 h-31.030303030303Z  M744.72727272727 930.90909090909 h31.030303030303 v31.030303030303 h-31.030303030303Z  M868.84848484848 930.90909090909 h31.030303030303 v31.030303030303 h-31.030303030303Z  M961.93939393939 930.90909090909 h31.030303030303 v31.030303030303 h-31.030303030303Z  M992.9696969697 930.90909090909 h31.030303030303 v31.030303030303 h-31.030303030303Z  M279.27272727273 961.93939393939 h31.030303030303 v31.030303030303 h-31.030303030303Z  M310.30303030303 961.93939393939 h31.030303030303 v31.030303030303 h-31.030303030303Z  M403.39393939394 961.93939393939 h31.030303030303 v31.030303030303 h-31.030303030303Z  M434.42424242424 961.93939393939 h31.030303030303 v31.030303030303 h-31.030303030303Z  M465.45454545455 961.93939393939 h31.030303030303 v31.030303030303 h-31.030303030303Z  M496.48484848485 961.93939393939 h31.030303030303 v31.030303030303 h-31.030303030303Z  M527.51515151515 961.93939393939 h31.030303030303 v31.030303030303 h-31.030303030303Z  M620.60606060606 961.93939393939 h31.030303030303 v31.030303030303 h-31.030303030303Z  M806.78787878788 961.93939393939 h31.030303030303 v31.030303030303 h-31.030303030303Z  M930.90909090909 961.93939393939 h31.030303030303 v31.030303030303 h-31.030303030303Z  M961.93939393939 961.93939393939 h31.030303030303 v31.030303030303 h-31.030303030303Z  M992.9696969697 961.93939393939 h31.030303030303 v31.030303030303 h-31.030303030303Z  M310.30303030303 992.9696969697 h31.030303030303 v31.030303030303 h-31.030303030303Z  M372.36363636364 992.9696969697 h31.030303030303 v31.030303030303 h-31.030303030303Z  M527.51515151515 992.9696969697 h31.030303030303 v31.030303030303 h-31.030303030303Z  M651.63636363636 992.9696969697 h31.030303030303 v31.030303030303 h-31.030303030303Z  M682.66666666667 992.9696969697 h31.030303030303 v31.030303030303 h-31.030303030303Z  M713.69696969697 992.9696969697 h31.030303030303 v31.030303030303 h-31.030303030303Z  M744.72727272727 992.9696969697 h31.030303030303 v31.030303030303 h-31.030303030303Z  M806.78787878788 992.9696969697 h31.030303030303 v31.030303030303 h-31.030303030303Z  M868.84848484848 992.9696969697 h31.030303030303 v31.030303030303 h-31.030303030303Z  M899.87878787879 992.9696969697 h31.030303030303 v31.030303030303 h-31.030303030303Z" /></symbol><symbol id="symbol-finder" class="qrcode-symbol finder"><g transform="translate(0, 0)"><g transform="translate(0, 0)"><use x="0" y="0" href="#symbol-finder-unit" width="217.21212121212" height="217.21212121212" fill="white" transform="scale(1, 1)" transform-origin="108.60606060606 108.60606060606" /></g></g><g transform="translate(1024, 0)"><g transform="translate(-217.21212121212, 0)"><use x="0" y="0" href="#symbol-finder-unit" width="217.21212121212" height="217.21212121212" fill="white" transform="scale(1, 1)" transform-origin="108.60606060606 108.60606060606" /></g></g><g transform="translate(0, 1024)"><g transform="translate(0, -217.21212121212)"><use x="0" y="0" href="#symbol-finder-unit" width="217.21212121212" height="217.21212121212" fill="white" transform="scale(1, 1)" transform-origin="108.60606060606 108.60606060606" /></g></g></symbol><symbol id="symbol-alignment" class="qrcode-symbol alignment"><g transform="translate(744.72727272727, 744.72727272727)"><g><use x="0" y="0" href="#symbol-alignment-unit" width="155.15151515152" height="155.15151515152" fill="white" transform-origin="77.575757575758 77.575757575758" /></g></g></symbol><symbol id="symbol-finder-dot" class="qrcode-symbol finder-dot"><g transform="translate(0, 0)"><g transform="translate(0, 0)"><use x="0" y="0" href="#symbol-finder-dot-unit" width="217.21212121212" height="217.21212121212" fill="white" transform="scale(1, 1)" transform-origin="108.60606060606 108.60606060606" /></g></g><g transform="translate(1024, 0)"><g transform="translate(-217.21212121212, 0)"><use x="0" y="0" href="#symbol-finder-dot-unit" width="217.21212121212" height="217.21212121212" fill="white" transform="scale(1, 1)" transform-origin="108.60606060606 108.60606060606" /></g></g><g transform="translate(0, 1024)"><g transform="translate(0, -217.21212121212)"><use x="0" y="0" href="#symbol-finder-dot-unit" width="217.21212121212" height="217.21212121212" fill="white" transform="scale(1, 1)" transform-origin="108.60606060606 108.60606060606" /></g></g></symbol><mask id="mask-data"><use x="0" y="0" href="#symbol-data" fill="white" /></mask><mask id="mask-finder"><use x="0" y="0" href="#symbol-finder" /></mask><mask id="mask-alignment"><use x="0" y="0" href="#symbol-alignment" fill="white" /></mask><mask id="mask-finder-dot"><use x="0" y="0" href="#symbol-finder-dot" /></mask><mask id="dark-mask"><use x="0" y="0" href="#symbol-data" width="1024" height="1024" fill="white" /><use x="0" y="0" href="#symbol-finder" width="1024" height="1024" fill="white" /><use x="0" y="0" href="#symbol-alignment" width="1024" height="1024" fill="white" /><use x="0" y="0" href="#symbol-finder-dot" width="1024" height="1024" fill="white" /></mask><g class="foreground-5"><g class="foreground-4" fill="url(#gradient-data-fill)"><mask id="mask-transform-reset-by-gradient"><g class="foreground-3" fill="white"><g class="foreground-2"><g class="foreground-1"><g class="foreground-0"><rect x="0" y="0" width="1024" height="1024" mask="url(#mask-joined-for-gradient)" class="dark type-data" /></g></g></g></g></mask><rect x="0" y="0" width="1024" height="1024" mask="url(#mask-transform-reset-by-gradient)" /></g></g><symbol id="symbol-finder-unit" viewBox="0 0 700 700"><path d="M 0 0 L 0 933.33398 L 933.33398 933.33398 L 933.33398 0 L 0 0 z M 133.33398 133.33398 L 800 133.33398 L 800 800 L 133.33398 800 L 133.33398 133.33398 z" transform="scale(0.75)" /></symbol><symbol id="symbol-finder-dot-unit" viewBox="0 0 700 700"><path d="M 200,200 H 500 V 500 H 200 Z" transform="scale(1)" /></symbol><symbol id="symbol-alignment-unit" viewBox="0 0 700 700"><g transform="scale(0.9)" transform-origin="350 350" class="alignment-outer"><path d="M 0 0 L 0 933.33398 L 933.33398 933.33398 L 933.33398 0 L 0 0 z M 133.33398 133.33398 L 800 133.33398 L 800 800 L 133.33398 800 L 133.33398 133.33398 z" transform="scale(0.75)" stroke="white" stroke-width="70" /></g><g transform="scale(0.4)" transform-origin="350 350"><path d="M 200,200 H 500 V 500 H 200 Z" transform="scale(1)" /></g></symbol><mask id="mask-joined-for-gradient"><rect x="0" y="0" width="1024" height="1024" class="" mask="url(#mask-data)" fill="white" /><rect x="0" y="0" width="1024" height="1024" class="" mask="url(#mask-finder)" fill="white" /><rect x="0" y="0" width="1024" height="1024" class="" mask="url(#mask-alignment)" fill="white" /><rect x="0" y="0" width="1024" height="1024" class="" mask="url(#mask-finder-dot)" fill="white" /></mask><linearGradient x1="0%" y1="0%" x2="100%" y2="100%" id="gradient-data-fill"><stop offset="0%" stop-color="#000000" opacity="1" /><stop offset="33%" stop-color="#000000" opacity="1" /><stop offset="70%" stop-color="#000000" opacity="1" /><stop offset="100%" stop-color="#000000" opacity="1" /></linearGradient></svg>