<?xml version="1.0" standalone="no"?>
<svg xmlns="http://www.w3.org/2000/svg" width="500" height="500"><defs><clipPath id="clip-path-dot-color"><rect x="25" y="105" width="10" height="10" transform="rotate(0,30,110)"/><rect x="25" y="115" width="10" height="10" transform="rotate(0,30,120)"/><rect x="25" y="125" width="10" height="10" transform="rotate(0,30,130)"/><rect x="25" y="155" width="10" height="10" transform="rotate(0,30,160)"/><rect x="25" y="275" width="10" height="10" transform="rotate(0,30,280)"/><rect x="25" y="285" width="10" height="10" transform="rotate(0,30,290)"/><rect x="25" y="325" width="10" height="10" transform="rotate(0,30,330)"/><rect x="25" y="335" width="10" height="10" transform="rotate(0,30,340)"/><rect x="25" y="355" width="10" height="10" transform="rotate(0,30,360)"/><rect x="25" y="385" width="10" height="10" transform="rotate(0,30,390)"/><rect x="35" y="115" width="10" height="10" transform="rotate(0,40,120)"/><rect x="35" y="135" width="10" height="10" transform="rotate(0,40,140)"/><rect x="35" y="145" width="10" height="10" transform="rotate(0,40,150)"/><rect x="35" y="155" width="10" height="10" transform="rotate(0,40,160)"/><rect x="35" y="185" width="10" height="10" transform="rotate(0,40,190)"/><rect x="35" y="195" width="10" height="10" transform="rotate(0,40,200)"/><rect x="35" y="215" width="10" height="10" transform="rotate(0,40,220)"/><rect x="35" y="235" width="10" height="10" transform="rotate(0,40,240)"/><rect x="35" y="255" width="10" height="10" transform="rotate(0,40,260)"/><rect x="35" y="265" width="10" height="10" transform="rotate(0,40,270)"/><rect x="35" y="285" width="10" height="10" transform="rotate(0,40,290)"/><rect x="35" y="295" width="10" height="10" transform="rotate(0,40,300)"/><rect x="35" y="305" width="10" height="10" transform="rotate(0,40,310)"/><rect x="35" y="325" width="10" height="10" transform="rotate(0,40,330)"/><rect x="35" y="355" width="10" height="10" transform="rotate(0,40,360)"/><rect x="35" y="375" width="10" height="10" transform="rotate(0,40,380)"/><rect x="45" y="105" width="10" height="10" transform="rotate(0,50,110)"/><rect x="45" y="115" width="10" height="10" transform="rotate(0,50,120)"/><rect x="45" y="125" width="10" height="10" transform="rotate(0,50,130)"/><rect x="45" y="165" width="10" height="10" transform="rotate(0,50,170)"/><rect x="45" y="185" width="10" height="10" transform="rotate(0,50,190)"/><rect x="45" y="205" width="10" height="10" transform="rotate(0,50,210)"/><rect x="45" y="215" width="10" height="10" transform="rotate(0,50,220)"/><rect x="45" y="225" width="10" height="10" transform="rotate(0,50,230)"/><rect x="45" y="245" width="10" height="10" transform="rotate(0,50,250)"/><rect x="45" y="265" width="10" height="10" transform="rotate(0,50,270)"/><rect x="45" y="275" width="10" height="10" transform="rotate(0,50,280)"/><rect x="45" y="285" width="10" height="10" transform="rotate(0,50,290)"/><rect x="45" y="295" width="10" height="10" transform="rotate(0,50,300)"/><rect x="45" y="345" width="10" height="10" transform="rotate(0,50,350)"/><rect x="45" y="375" width="10" height="10" transform="rotate(0,50,380)"/><rect x="55" y="105" width="10" height="10" transform="rotate(0,60,110)"/><rect x="55" y="125" width="10" height="10" transform="rotate(0,60,130)"/><rect x="55" y="175" width="10" height="10" transform="rotate(0,60,180)"/><rect x="55" y="195" width="10" height="10" transform="rotate(0,60,200)"/><rect x="55" y="225" width="10" height="10" transform="rotate(0,60,230)"/><rect x="55" y="275" width="10" height="10" transform="rotate(0,60,280)"/><rect x="55" y="285" width="10" height="10" transform="rotate(0,60,290)"/><rect x="55" y="295" width="10" height="10" transform="rotate(0,60,300)"/><rect x="55" y="355" width="10" height="10" transform="rotate(0,60,360)"/><rect x="55" y="375" width="10" height="10" transform="rotate(0,60,380)"/><rect x="55" y="385" width="10" height="10" transform="rotate(0,60,390)"/><rect x="65" y="115" width="10" height="10" transform="rotate(0,70,120)"/><rect x="65" y="125" width="10" height="10" transform="rotate(0,70,130)"/><rect x="65" y="135" width="10" height="10" transform="rotate(0,70,140)"/><rect x="65" y="145" width="10" height="10" transform="rotate(0,70,150)"/><rect x="65" y="165" width="10" height="10" transform="rotate(0,70,170)"/><rect x="65" y="195" width="10" height="10" transform="rotate(0,70,200)"/><rect x="65" y="215" width="10" height="10" transform="rotate(0,70,220)"/><rect x="65" y="225" width="10" height="10" transform="rotate(0,70,230)"/><rect x="65" y="235" width="10" height="10" transform="rotate(0,70,240)"/><rect x="65" y="245" width="10" height="10" transform="rotate(0,70,250)"/><rect x="65" y="255" width="10" height="10" transform="rotate(0,70,260)"/><rect x="65" y="265" width="10" height="10" transform="rotate(0,70,270)"/><rect x="65" y="305" width="10" height="10" transform="rotate(0,70,310)"/><rect x="65" y="315" width="10" height="10" transform="rotate(0,70,320)"/><rect x="65" y="325" width="10" height="10" transform="rotate(0,70,330)"/><rect x="65" y="345" width="10" height="10" transform="rotate(0,70,350)"/><rect x="65" y="355" width="10" height="10" transform="rotate(0,70,360)"/><rect x="65" y="365" width="10" height="10" transform="rotate(0,70,370)"/><rect x="65" y="375" width="10" height="10" transform="rotate(0,70,380)"/><rect x="65" y="385" width="10" height="10" transform="rotate(0,70,390)"/><rect x="75" y="105" width="10" height="10" transform="rotate(0,80,110)"/><rect x="75" y="115" width="10" height="10" transform="rotate(0,80,120)"/><rect x="75" y="125" width="10" height="10" transform="rotate(0,80,130)"/><rect x="75" y="135" width="10" height="10" transform="rotate(0,80,140)"/><rect x="75" y="145" width="10" height="10" transform="rotate(0,80,150)"/><rect x="75" y="155" width="10" height="10" transform="rotate(0,80,160)"/><rect x="75" y="175" width="10" height="10" transform="rotate(0,80,180)"/><rect x="75" y="205" width="10" height="10" transform="rotate(0,80,210)"/><rect x="75" y="225" width="10" height="10" transform="rotate(0,80,230)"/><rect x="75" y="265" width="10" height="10" transform="rotate(0,80,270)"/><rect x="75" y="275" width="10" height="10" transform="rotate(0,80,280)"/><rect x="75" y="285" width="10" height="10" transform="rotate(0,80,290)"/><rect x="75" y="295" width="10" height="10" transform="rotate(0,80,300)"/><rect x="75" y="325" width="10" height="10" transform="rotate(0,80,330)"/><rect x="75" y="355" width="10" height="10" transform="rotate(0,80,360)"/><rect x="85" y="105" width="10" height="10" transform="rotate(0,90,110)"/><rect x="85" y="125" width="10" height="10" transform="rotate(0,90,130)"/><rect x="85" y="145" width="10" height="10" transform="rotate(0,90,150)"/><rect x="85" y="165" width="10" height="10" transform="rotate(0,90,170)"/><rect x="85" y="185" width="10" height="10" transform="rotate(0,90,190)"/><rect x="85" y="205" width="10" height="10" transform="rotate(0,90,210)"/><rect x="85" y="225" width="10" height="10" transform="rotate(0,90,230)"/><rect x="85" y="245" width="10" height="10" transform="rotate(0,90,250)"/><rect x="85" y="265" width="10" height="10" transform="rotate(0,90,270)"/><rect x="85" y="285" width="10" height="10" transform="rotate(0,90,290)"/><rect x="85" y="305" width="10" height="10" transform="rotate(0,90,310)"/><rect x="85" y="325" width="10" height="10" transform="rotate(0,90,330)"/><rect x="85" y="345" width="10" height="10" transform="rotate(0,90,350)"/><rect x="85" y="365" width="10" height="10" transform="rotate(0,90,370)"/><rect x="85" y="385" width="10" height="10" transform="rotate(0,90,390)"/><rect x="95" y="105" width="10" height="10" transform="rotate(0,100,110)"/><rect x="95" y="125" width="10" height="10" transform="rotate(0,100,130)"/><rect x="95" y="135" width="10" height="10" transform="rotate(0,100,140)"/><rect x="95" y="145" width="10" height="10" transform="rotate(0,100,150)"/><rect x="95" y="175" width="10" height="10" transform="rotate(0,100,180)"/><rect x="95" y="185" width="10" height="10" transform="rotate(0,100,190)"/><rect x="95" y="205" width="10" height="10" transform="rotate(0,100,210)"/><rect x="95" y="215" width="10" height="10" transform="rotate(0,100,220)"/><rect x="95" y="225" width="10" height="10" transform="rotate(0,100,230)"/><rect x="95" y="265" width="10" height="10" transform="rotate(0,100,270)"/><rect x="95" y="285" width="10" height="10" transform="rotate(0,100,290)"/><rect x="95" y="295" width="10" height="10" transform="rotate(0,100,300)"/><rect x="95" y="345" width="10" height="10" transform="rotate(0,100,350)"/><rect x="95" y="355" width="10" height="10" transform="rotate(0,100,360)"/><rect x="95" y="365" width="10" height="10" transform="rotate(0,100,370)"/><rect x="95" y="375" width="10" height="10" transform="rotate(0,100,380)"/><rect x="105" y="35" width="10" height="10" transform="rotate(0,110,40)"/><rect x="105" y="55" width="10" height="10" transform="rotate(0,110,60)"/><rect x="105" y="75" width="10" height="10" transform="rotate(0,110,80)"/><rect x="105" y="85" width="10" height="10" transform="rotate(0,110,90)"/><rect x="105" y="95" width="10" height="10" transform="rotate(0,110,100)"/><rect x="105" y="105" width="10" height="10" transform="rotate(0,110,110)"/><rect x="105" y="115" width="10" height="10" transform="rotate(0,110,120)"/><rect x="105" y="155" width="10" height="10" transform="rotate(0,110,160)"/><rect x="105" y="165" width="10" height="10" transform="rotate(0,110,170)"/><rect x="105" y="175" width="10" height="10" transform="rotate(0,110,180)"/><rect x="105" y="185" width="10" height="10" transform="rotate(0,110,190)"/><rect x="105" y="195" width="10" height="10" transform="rotate(0,110,200)"/><rect x="105" y="205" width="10" height="10" transform="rotate(0,110,210)"/><rect x="105" y="215" width="10" height="10" transform="rotate(0,110,220)"/><rect x="105" y="225" width="10" height="10" transform="rotate(0,110,230)"/><rect x="105" y="235" width="10" height="10" transform="rotate(0,110,240)"/><rect x="105" y="245" width="10" height="10" transform="rotate(0,110,250)"/><rect x="105" y="255" width="10" height="10" transform="rotate(0,110,260)"/><rect x="105" y="265" width="10" height="10" transform="rotate(0,110,270)"/><rect x="105" y="275" width="10" height="10" transform="rotate(0,110,280)"/><rect x="105" y="295" width="10" height="10" transform="rotate(0,110,300)"/><rect x="105" y="305" width="10" height="10" transform="rotate(0,110,310)"/><rect x="105" y="355" width="10" height="10" transform="rotate(0,110,360)"/><rect x="105" y="365" width="10" height="10" transform="rotate(0,110,370)"/><rect x="105" y="375" width="10" height="10" transform="rotate(0,110,380)"/><rect x="105" y="395" width="10" height="10" transform="rotate(0,110,400)"/><rect x="105" y="405" width="10" height="10" transform="rotate(0,110,410)"/><rect x="105" y="415" width="10" height="10" transform="rotate(0,110,420)"/><rect x="105" y="435" width="10" height="10" transform="rotate(0,110,440)"/><rect x="105" y="445" width="10" height="10" transform="rotate(0,110,450)"/><rect x="105" y="465" width="10" height="10" transform="rotate(0,110,470)"/><rect x="115" y="25" width="10" height="10" transform="rotate(0,120,30)"/><rect x="115" y="75" width="10" height="10" transform="rotate(0,120,80)"/><rect x="115" y="105" width="10" height="10" transform="rotate(0,120,110)"/><rect x="115" y="115" width="10" height="10" transform="rotate(0,120,120)"/><rect x="115" y="155" width="10" height="10" transform="rotate(0,120,160)"/><rect x="115" y="185" width="10" height="10" transform="rotate(0,120,190)"/><rect x="115" y="215" width="10" height="10" transform="rotate(0,120,220)"/><rect x="115" y="265" width="10" height="10" transform="rotate(0,120,270)"/><rect x="115" y="295" width="10" height="10" transform="rotate(0,120,300)"/><rect x="115" y="305" width="10" height="10" transform="rotate(0,120,310)"/><rect x="115" y="335" width="10" height="10" transform="rotate(0,120,340)"/><rect x="115" y="345" width="10" height="10" transform="rotate(0,120,350)"/><rect x="115" y="415" width="10" height="10" transform="rotate(0,120,420)"/><rect x="115" y="445" width="10" height="10" transform="rotate(0,120,450)"/><rect x="115" y="465" width="10" height="10" transform="rotate(0,120,470)"/><rect x="125" y="35" width="10" height="10" transform="rotate(0,130,40)"/><rect x="125" y="45" width="10" height="10" transform="rotate(0,130,50)"/><rect x="125" y="85" width="10" height="10" transform="rotate(0,130,90)"/><rect x="125" y="95" width="10" height="10" transform="rotate(0,130,100)"/><rect x="125" y="105" width="10" height="10" transform="rotate(0,130,110)"/><rect x="125" y="115" width="10" height="10" transform="rotate(0,130,120)"/><rect x="125" y="135" width="10" height="10" transform="rotate(0,130,140)"/><rect x="125" y="155" width="10" height="10" transform="rotate(0,130,160)"/><rect x="125" y="185" width="10" height="10" transform="rotate(0,130,190)"/><rect x="125" y="225" width="10" height="10" transform="rotate(0,130,230)"/><rect x="125" y="235" width="10" height="10" transform="rotate(0,130,240)"/><rect x="125" y="245" width="10" height="10" transform="rotate(0,130,250)"/><rect x="125" y="265" width="10" height="10" transform="rotate(0,130,270)"/><rect x="125" y="275" width="10" height="10" transform="rotate(0,130,280)"/><rect x="125" y="295" width="10" height="10" transform="rotate(0,130,300)"/><rect x="125" y="305" width="10" height="10" transform="rotate(0,130,310)"/><rect x="125" y="315" width="10" height="10" transform="rotate(0,130,320)"/><rect x="125" y="365" width="10" height="10" transform="rotate(0,130,370)"/><rect x="125" y="375" width="10" height="10" transform="rotate(0,130,380)"/><rect x="125" y="415" width="10" height="10" transform="rotate(0,130,420)"/><rect x="125" y="435" width="10" height="10" transform="rotate(0,130,440)"/><rect x="125" y="465" width="10" height="10" transform="rotate(0,130,470)"/><rect x="135" y="25" width="10" height="10" transform="rotate(0,140,30)"/><rect x="135" y="65" width="10" height="10" transform="rotate(0,140,70)"/><rect x="135" y="95" width="10" height="10" transform="rotate(0,140,100)"/><rect x="135" y="105" width="10" height="10" transform="rotate(0,140,110)"/><rect x="135" y="115" width="10" height="10" transform="rotate(0,140,120)"/><rect x="135" y="125" width="10" height="10" transform="rotate(0,140,130)"/><rect x="135" y="135" width="10" height="10" transform="rotate(0,140,140)"/><rect x="135" y="145" width="10" height="10" transform="rotate(0,140,150)"/><rect x="135" y="165" width="10" height="10" transform="rotate(0,140,170)"/><rect x="135" y="185" width="10" height="10" transform="rotate(0,140,190)"/><rect x="135" y="195" width="10" height="10" transform="rotate(0,140,200)"/><rect x="135" y="205" width="10" height="10" transform="rotate(0,140,210)"/><rect x="135" y="265" width="10" height="10" transform="rotate(0,140,270)"/><rect x="135" y="285" width="10" height="10" transform="rotate(0,140,290)"/><rect x="135" y="295" width="10" height="10" transform="rotate(0,140,300)"/><rect x="135" y="305" width="10" height="10" transform="rotate(0,140,310)"/><rect x="135" y="315" width="10" height="10" transform="rotate(0,140,320)"/><rect x="135" y="325" width="10" height="10" transform="rotate(0,140,330)"/><rect x="135" y="335" width="10" height="10" transform="rotate(0,140,340)"/><rect x="135" y="365" width="10" height="10" transform="rotate(0,140,370)"/><rect x="135" y="375" width="10" height="10" transform="rotate(0,140,380)"/><rect x="135" y="385" width="10" height="10" transform="rotate(0,140,390)"/><rect x="135" y="395" width="10" height="10" transform="rotate(0,140,400)"/><rect x="135" y="405" width="10" height="10" transform="rotate(0,140,410)"/><rect x="135" y="415" width="10" height="10" transform="rotate(0,140,420)"/><rect x="135" y="425" width="10" height="10" transform="rotate(0,140,430)"/><rect x="135" y="435" width="10" height="10" transform="rotate(0,140,440)"/><rect x="135" y="465" width="10" height="10" transform="rotate(0,140,470)"/><rect x="145" y="45" width="10" height="10" transform="rotate(0,150,50)"/><rect x="145" y="75" width="10" height="10" transform="rotate(0,150,80)"/><rect x="145" y="85" width="10" height="10" transform="rotate(0,150,90)"/><rect x="145" y="105" width="10" height="10" transform="rotate(0,150,110)"/><rect x="145" y="135" width="10" height="10" transform="rotate(0,150,140)"/><rect x="145" y="165" width="10" height="10" transform="rotate(0,150,170)"/><rect x="145" y="175" width="10" height="10" transform="rotate(0,150,180)"/><rect x="145" y="185" width="10" height="10" transform="rotate(0,150,190)"/><rect x="145" y="195" width="10" height="10" transform="rotate(0,150,200)"/><rect x="145" y="225" width="10" height="10" transform="rotate(0,150,230)"/><rect x="145" y="235" width="10" height="10" transform="rotate(0,150,240)"/><rect x="145" y="245" width="10" height="10" transform="rotate(0,150,250)"/><rect x="145" y="255" width="10" height="10" transform="rotate(0,150,260)"/><rect x="145" y="265" width="10" height="10" transform="rotate(0,150,270)"/><rect x="145" y="285" width="10" height="10" transform="rotate(0,150,290)"/><rect x="145" y="295" width="10" height="10" transform="rotate(0,150,300)"/><rect x="145" y="305" width="10" height="10" transform="rotate(0,150,310)"/><rect x="145" y="315" width="10" height="10" transform="rotate(0,150,320)"/><rect x="145" y="345" width="10" height="10" transform="rotate(0,150,350)"/><rect x="145" y="375" width="10" height="10" transform="rotate(0,150,380)"/><rect x="145" y="395" width="10" height="10" transform="rotate(0,150,400)"/><rect x="145" y="415" width="10" height="10" transform="rotate(0,150,420)"/><rect x="145" y="425" width="10" height="10" transform="rotate(0,150,430)"/><rect x="145" y="465" width="10" height="10" transform="rotate(0,150,470)"/><rect x="155" y="35" width="10" height="10" transform="rotate(0,160,40)"/><rect x="155" y="55" width="10" height="10" transform="rotate(0,160,60)"/><rect x="155" y="75" width="10" height="10" transform="rotate(0,160,80)"/><rect x="155" y="135" width="10" height="10" transform="rotate(0,160,140)"/><rect x="155" y="155" width="10" height="10" transform="rotate(0,160,160)"/><rect x="155" y="175" width="10" height="10" transform="rotate(0,160,180)"/><rect x="155" y="225" width="10" height="10" transform="rotate(0,160,230)"/><rect x="155" y="235" width="10" height="10" transform="rotate(0,160,240)"/><rect x="155" y="255" width="10" height="10" transform="rotate(0,160,260)"/><rect x="155" y="265" width="10" height="10" transform="rotate(0,160,270)"/><rect x="155" y="315" width="10" height="10" transform="rotate(0,160,320)"/><rect x="155" y="335" width="10" height="10" transform="rotate(0,160,340)"/><rect x="155" y="365" width="10" height="10" transform="rotate(0,160,370)"/><rect x="155" y="375" width="10" height="10" transform="rotate(0,160,380)"/><rect x="155" y="395" width="10" height="10" transform="rotate(0,160,400)"/><rect x="155" y="415" width="10" height="10" transform="rotate(0,160,420)"/><rect x="155" y="425" width="10" height="10" transform="rotate(0,160,430)"/><rect x="155" y="465" width="10" height="10" transform="rotate(0,160,470)"/><rect x="165" y="25" width="10" height="10" transform="rotate(0,170,30)"/><rect x="165" y="35" width="10" height="10" transform="rotate(0,170,40)"/><rect x="165" y="55" width="10" height="10" transform="rotate(0,170,60)"/><rect x="165" y="65" width="10" height="10" transform="rotate(0,170,70)"/><rect x="165" y="85" width="10" height="10" transform="rotate(0,170,90)"/><rect x="165" y="95" width="10" height="10" transform="rotate(0,170,100)"/><rect x="165" y="105" width="10" height="10" transform="rotate(0,170,110)"/><rect x="165" y="115" width="10" height="10" transform="rotate(0,170,120)"/><rect x="165" y="145" width="10" height="10" transform="rotate(0,170,150)"/><rect x="165" y="155" width="10" height="10" transform="rotate(0,170,160)"/><rect x="165" y="175" width="10" height="10" transform="rotate(0,170,180)"/><rect x="165" y="185" width="10" height="10" transform="rotate(0,170,190)"/><rect x="165" y="245" width="10" height="10" transform="rotate(0,170,250)"/><rect x="165" y="255" width="10" height="10" transform="rotate(0,170,260)"/><rect x="165" y="285" width="10" height="10" transform="rotate(0,170,290)"/><rect x="165" y="295" width="10" height="10" transform="rotate(0,170,300)"/><rect x="165" y="335" width="10" height="10" transform="rotate(0,170,340)"/><rect x="165" y="385" width="10" height="10" transform="rotate(0,170,390)"/><rect x="165" y="395" width="10" height="10" transform="rotate(0,170,400)"/><rect x="165" y="405" width="10" height="10" transform="rotate(0,170,410)"/><rect x="165" y="415" width="10" height="10" transform="rotate(0,170,420)"/><rect x="165" y="425" width="10" height="10" transform="rotate(0,170,430)"/><rect x="165" y="435" width="10" height="10" transform="rotate(0,170,440)"/><rect x="165" y="455" width="10" height="10" transform="rotate(0,170,460)"/><rect x="175" y="25" width="10" height="10" transform="rotate(0,180,30)"/><rect x="175" y="75" width="10" height="10" transform="rotate(0,180,80)"/><rect x="175" y="95" width="10" height="10" transform="rotate(0,180,100)"/><rect x="175" y="115" width="10" height="10" transform="rotate(0,180,120)"/><rect x="175" y="125" width="10" height="10" transform="rotate(0,180,130)"/><rect x="175" y="135" width="10" height="10" transform="rotate(0,180,140)"/><rect x="175" y="145" width="10" height="10" transform="rotate(0,180,150)"/><rect x="175" y="155" width="10" height="10" transform="rotate(0,180,160)"/><rect x="175" y="175" width="10" height="10" transform="rotate(0,180,180)"/><rect x="175" y="185" width="10" height="10" transform="rotate(0,180,190)"/><rect x="175" y="195" width="10" height="10" transform="rotate(0,180,200)"/><rect x="175" y="225" width="10" height="10" transform="rotate(0,180,230)"/><rect x="175" y="235" width="10" height="10" transform="rotate(0,180,240)"/><rect x="175" y="245" width="10" height="10" transform="rotate(0,180,250)"/><rect x="175" y="255" width="10" height="10" transform="rotate(0,180,260)"/><rect x="175" y="285" width="10" height="10" transform="rotate(0,180,290)"/><rect x="175" y="295" width="10" height="10" transform="rotate(0,180,300)"/><rect x="175" y="305" width="10" height="10" transform="rotate(0,180,310)"/><rect x="175" y="325" width="10" height="10" transform="rotate(0,180,330)"/><rect x="175" y="345" width="10" height="10" transform="rotate(0,180,350)"/><rect x="175" y="355" width="10" height="10" transform="rotate(0,180,360)"/><rect x="175" y="365" width="10" height="10" transform="rotate(0,180,370)"/><rect x="175" y="385" width="10" height="10" transform="rotate(0,180,390)"/><rect x="175" y="405" width="10" height="10" transform="rotate(0,180,410)"/><rect x="175" y="415" width="10" height="10" transform="rotate(0,180,420)"/><rect x="175" y="425" width="10" height="10" transform="rotate(0,180,430)"/><rect x="185" y="25" width="10" height="10" transform="rotate(0,190,30)"/><rect x="185" y="45" width="10" height="10" transform="rotate(0,190,50)"/><rect x="185" y="55" width="10" height="10" transform="rotate(0,190,60)"/><rect x="185" y="85" width="10" height="10" transform="rotate(0,190,90)"/><rect x="185" y="95" width="10" height="10" transform="rotate(0,190,100)"/><rect x="185" y="105" width="10" height="10" transform="rotate(0,190,110)"/><rect x="185" y="185" width="10" height="10" transform="rotate(0,190,190)"/><rect x="185" y="205" width="10" height="10" transform="rotate(0,190,210)"/><rect x="185" y="215" width="10" height="10" transform="rotate(0,190,220)"/><rect x="185" y="225" width="10" height="10" transform="rotate(0,190,230)"/><rect x="185" y="235" width="10" height="10" transform="rotate(0,190,240)"/><rect x="185" y="285" width="10" height="10" transform="rotate(0,190,290)"/><rect x="185" y="295" width="10" height="10" transform="rotate(0,190,300)"/><rect x="185" y="315" width="10" height="10" transform="rotate(0,190,320)"/><rect x="185" y="345" width="10" height="10" transform="rotate(0,190,350)"/><rect x="185" y="365" width="10" height="10" transform="rotate(0,190,370)"/><rect x="185" y="375" width="10" height="10" transform="rotate(0,190,380)"/><rect x="185" y="395" width="10" height="10" transform="rotate(0,190,400)"/><rect x="185" y="415" width="10" height="10" transform="rotate(0,190,420)"/><rect x="185" y="435" width="10" height="10" transform="rotate(0,190,440)"/><rect x="195" y="45" width="10" height="10" transform="rotate(0,200,50)"/><rect x="195" y="55" width="10" height="10" transform="rotate(0,200,60)"/><rect x="195" y="95" width="10" height="10" transform="rotate(0,200,100)"/><rect x="195" y="125" width="10" height="10" transform="rotate(0,200,130)"/><rect x="195" y="145" width="10" height="10" transform="rotate(0,200,150)"/><rect x="195" y="175" width="10" height="10" transform="rotate(0,200,180)"/><rect x="195" y="185" width="10" height="10" transform="rotate(0,200,190)"/><rect x="195" y="195" width="10" height="10" transform="rotate(0,200,200)"/><rect x="195" y="265" width="10" height="10" transform="rotate(0,200,270)"/><rect x="195" y="275" width="10" height="10" transform="rotate(0,200,280)"/><rect x="195" y="285" width="10" height="10" transform="rotate(0,200,290)"/><rect x="195" y="305" width="10" height="10" transform="rotate(0,200,310)"/><rect x="195" y="315" width="10" height="10" transform="rotate(0,200,320)"/><rect x="195" y="355" width="10" height="10" transform="rotate(0,200,360)"/><rect x="195" y="405" width="10" height="10" transform="rotate(0,200,410)"/><rect x="195" y="445" width="10" height="10" transform="rotate(0,200,450)"/><rect x="195" y="455" width="10" height="10" transform="rotate(0,200,460)"/><rect x="205" y="55" width="10" height="10" transform="rotate(0,210,60)"/><rect x="205" y="75" width="10" height="10" transform="rotate(0,210,80)"/><rect x="205" y="85" width="10" height="10" transform="rotate(0,210,90)"/><rect x="205" y="115" width="10" height="10" transform="rotate(0,210,120)"/><rect x="205" y="145" width="10" height="10" transform="rotate(0,210,150)"/><rect x="205" y="205" width="10" height="10" transform="rotate(0,210,210)"/><rect x="205" y="215" width="10" height="10" transform="rotate(0,210,220)"/><rect x="205" y="235" width="10" height="10" transform="rotate(0,210,240)"/><rect x="205" y="245" width="10" height="10" transform="rotate(0,210,250)"/><rect x="205" y="265" width="10" height="10" transform="rotate(0,210,270)"/><rect x="205" y="305" width="10" height="10" transform="rotate(0,210,310)"/><rect x="205" y="335" width="10" height="10" transform="rotate(0,210,340)"/><rect x="205" y="345" width="10" height="10" transform="rotate(0,210,350)"/><rect x="205" y="375" width="10" height="10" transform="rotate(0,210,380)"/><rect x="205" y="415" width="10" height="10" transform="rotate(0,210,420)"/><rect x="205" y="425" width="10" height="10" transform="rotate(0,210,430)"/><rect x="205" y="435" width="10" height="10" transform="rotate(0,210,440)"/><rect x="205" y="445" width="10" height="10" transform="rotate(0,210,450)"/><rect x="205" y="455" width="10" height="10" transform="rotate(0,210,460)"/><rect x="205" y="465" width="10" height="10" transform="rotate(0,210,470)"/><rect x="215" y="25" width="10" height="10" transform="rotate(0,220,30)"/><rect x="215" y="55" width="10" height="10" transform="rotate(0,220,60)"/><rect x="215" y="145" width="10" height="10" transform="rotate(0,220,150)"/><rect x="215" y="155" width="10" height="10" transform="rotate(0,220,160)"/><rect x="215" y="165" width="10" height="10" transform="rotate(0,220,170)"/><rect x="215" y="205" width="10" height="10" transform="rotate(0,220,210)"/><rect x="215" y="235" width="10" height="10" transform="rotate(0,220,240)"/><rect x="215" y="245" width="10" height="10" transform="rotate(0,220,250)"/><rect x="215" y="305" width="10" height="10" transform="rotate(0,220,310)"/><rect x="215" y="325" width="10" height="10" transform="rotate(0,220,330)"/><rect x="215" y="345" width="10" height="10" transform="rotate(0,220,350)"/><rect x="215" y="355" width="10" height="10" transform="rotate(0,220,360)"/><rect x="215" y="365" width="10" height="10" transform="rotate(0,220,370)"/><rect x="215" y="375" width="10" height="10" transform="rotate(0,220,380)"/><rect x="215" y="465" width="10" height="10" transform="rotate(0,220,470)"/><rect x="225" y="25" width="10" height="10" transform="rotate(0,230,30)"/><rect x="225" y="35" width="10" height="10" transform="rotate(0,230,40)"/><rect x="225" y="65" width="10" height="10" transform="rotate(0,230,70)"/><rect x="225" y="75" width="10" height="10" transform="rotate(0,230,80)"/><rect x="225" y="85" width="10" height="10" transform="rotate(0,230,90)"/><rect x="225" y="95" width="10" height="10" transform="rotate(0,230,100)"/><rect x="225" y="105" width="10" height="10" transform="rotate(0,230,110)"/><rect x="225" y="115" width="10" height="10" transform="rotate(0,230,120)"/><rect x="225" y="145" width="10" height="10" transform="rotate(0,230,150)"/><rect x="225" y="155" width="10" height="10" transform="rotate(0,230,160)"/><rect x="225" y="165" width="10" height="10" transform="rotate(0,230,170)"/><rect x="225" y="185" width="10" height="10" transform="rotate(0,230,190)"/><rect x="225" y="205" width="10" height="10" transform="rotate(0,230,210)"/><rect x="225" y="225" width="10" height="10" transform="rotate(0,230,230)"/><rect x="225" y="235" width="10" height="10" transform="rotate(0,230,240)"/><rect x="225" y="245" width="10" height="10" transform="rotate(0,230,250)"/><rect x="225" y="255" width="10" height="10" transform="rotate(0,230,260)"/><rect x="225" y="265" width="10" height="10" transform="rotate(0,230,270)"/><rect x="225" y="275" width="10" height="10" transform="rotate(0,230,280)"/><rect x="225" y="305" width="10" height="10" transform="rotate(0,230,310)"/><rect x="225" y="315" width="10" height="10" transform="rotate(0,230,320)"/><rect x="225" y="325" width="10" height="10" transform="rotate(0,230,330)"/><rect x="225" y="335" width="10" height="10" transform="rotate(0,230,340)"/><rect x="225" y="355" width="10" height="10" transform="rotate(0,230,360)"/><rect x="225" y="365" width="10" height="10" transform="rotate(0,230,370)"/><rect x="225" y="375" width="10" height="10" transform="rotate(0,230,380)"/><rect x="225" y="385" width="10" height="10" transform="rotate(0,230,390)"/><rect x="225" y="395" width="10" height="10" transform="rotate(0,230,400)"/><rect x="225" y="405" width="10" height="10" transform="rotate(0,230,410)"/><rect x="225" y="415" width="10" height="10" transform="rotate(0,230,420)"/><rect x="225" y="425" width="10" height="10" transform="rotate(0,230,430)"/><rect x="225" y="435" width="10" height="10" transform="rotate(0,230,440)"/><rect x="235" y="65" width="10" height="10" transform="rotate(0,240,70)"/><rect x="235" y="105" width="10" height="10" transform="rotate(0,240,110)"/><rect x="235" y="155" width="10" height="10" transform="rotate(0,240,160)"/><rect x="235" y="165" width="10" height="10" transform="rotate(0,240,170)"/><rect x="235" y="185" width="10" height="10" transform="rotate(0,240,190)"/><rect x="235" y="215" width="10" height="10" transform="rotate(0,240,220)"/><rect x="235" y="225" width="10" height="10" transform="rotate(0,240,230)"/><rect x="235" y="265" width="10" height="10" transform="rotate(0,240,270)"/><rect x="235" y="275" width="10" height="10" transform="rotate(0,240,280)"/><rect x="235" y="315" width="10" height="10" transform="rotate(0,240,320)"/><rect x="235" y="355" width="10" height="10" transform="rotate(0,240,360)"/><rect x="235" y="385" width="10" height="10" transform="rotate(0,240,390)"/><rect x="235" y="425" width="10" height="10" transform="rotate(0,240,430)"/><rect x="235" y="435" width="10" height="10" transform="rotate(0,240,440)"/><rect x="235" y="445" width="10" height="10" transform="rotate(0,240,450)"/><rect x="235" y="455" width="10" height="10" transform="rotate(0,240,460)"/><rect x="235" y="465" width="10" height="10" transform="rotate(0,240,470)"/><rect x="245" y="25" width="10" height="10" transform="rotate(0,250,30)"/><rect x="245" y="35" width="10" height="10" transform="rotate(0,250,40)"/><rect x="245" y="55" width="10" height="10" transform="rotate(0,250,60)"/><rect x="245" y="65" width="10" height="10" transform="rotate(0,250,70)"/><rect x="245" y="85" width="10" height="10" transform="rotate(0,250,90)"/><rect x="245" y="105" width="10" height="10" transform="rotate(0,250,110)"/><rect x="245" y="125" width="10" height="10" transform="rotate(0,250,130)"/><rect x="245" y="135" width="10" height="10" transform="rotate(0,250,140)"/><rect x="245" y="145" width="10" height="10" transform="rotate(0,250,150)"/><rect x="245" y="155" width="10" height="10" transform="rotate(0,250,160)"/><rect x="245" y="165" width="10" height="10" transform="rotate(0,250,170)"/><rect x="245" y="185" width="10" height="10" transform="rotate(0,250,190)"/><rect x="245" y="225" width="10" height="10" transform="rotate(0,250,230)"/><rect x="245" y="245" width="10" height="10" transform="rotate(0,250,250)"/><rect x="245" y="265" width="10" height="10" transform="rotate(0,250,270)"/><rect x="245" y="285" width="10" height="10" transform="rotate(0,250,290)"/><rect x="245" y="325" width="10" height="10" transform="rotate(0,250,330)"/><rect x="245" y="335" width="10" height="10" transform="rotate(0,250,340)"/><rect x="245" y="345" width="10" height="10" transform="rotate(0,250,350)"/><rect x="245" y="365" width="10" height="10" transform="rotate(0,250,370)"/><rect x="245" y="385" width="10" height="10" transform="rotate(0,250,390)"/><rect x="245" y="405" width="10" height="10" transform="rotate(0,250,410)"/><rect x="245" y="425" width="10" height="10" transform="rotate(0,250,430)"/><rect x="245" y="445" width="10" height="10" transform="rotate(0,250,450)"/><rect x="245" y="465" width="10" height="10" transform="rotate(0,250,470)"/><rect x="255" y="25" width="10" height="10" transform="rotate(0,260,30)"/><rect x="255" y="35" width="10" height="10" transform="rotate(0,260,40)"/><rect x="255" y="45" width="10" height="10" transform="rotate(0,260,50)"/><rect x="255" y="55" width="10" height="10" transform="rotate(0,260,60)"/><rect x="255" y="65" width="10" height="10" transform="rotate(0,260,70)"/><rect x="255" y="105" width="10" height="10" transform="rotate(0,260,110)"/><rect x="255" y="115" width="10" height="10" transform="rotate(0,260,120)"/><rect x="255" y="125" width="10" height="10" transform="rotate(0,260,130)"/><rect x="255" y="155" width="10" height="10" transform="rotate(0,260,160)"/><rect x="255" y="175" width="10" height="10" transform="rotate(0,260,180)"/><rect x="255" y="185" width="10" height="10" transform="rotate(0,260,190)"/><rect x="255" y="225" width="10" height="10" transform="rotate(0,260,230)"/><rect x="255" y="265" width="10" height="10" transform="rotate(0,260,270)"/><rect x="255" y="275" width="10" height="10" transform="rotate(0,260,280)"/><rect x="255" y="305" width="10" height="10" transform="rotate(0,260,310)"/><rect x="255" y="365" width="10" height="10" transform="rotate(0,260,370)"/><rect x="255" y="385" width="10" height="10" transform="rotate(0,260,390)"/><rect x="255" y="425" width="10" height="10" transform="rotate(0,260,430)"/><rect x="255" y="435" width="10" height="10" transform="rotate(0,260,440)"/><rect x="265" y="25" width="10" height="10" transform="rotate(0,270,30)"/><rect x="265" y="55" width="10" height="10" transform="rotate(0,270,60)"/><rect x="265" y="65" width="10" height="10" transform="rotate(0,270,70)"/><rect x="265" y="75" width="10" height="10" transform="rotate(0,270,80)"/><rect x="265" y="85" width="10" height="10" transform="rotate(0,270,90)"/><rect x="265" y="95" width="10" height="10" transform="rotate(0,270,100)"/><rect x="265" y="105" width="10" height="10" transform="rotate(0,270,110)"/><rect x="265" y="115" width="10" height="10" transform="rotate(0,270,120)"/><rect x="265" y="125" width="10" height="10" transform="rotate(0,270,130)"/><rect x="265" y="165" width="10" height="10" transform="rotate(0,270,170)"/><rect x="265" y="175" width="10" height="10" transform="rotate(0,270,180)"/><rect x="265" y="205" width="10" height="10" transform="rotate(0,270,210)"/><rect x="265" y="215" width="10" height="10" transform="rotate(0,270,220)"/><rect x="265" y="225" width="10" height="10" transform="rotate(0,270,230)"/><rect x="265" y="235" width="10" height="10" transform="rotate(0,270,240)"/><rect x="265" y="245" width="10" height="10" transform="rotate(0,270,250)"/><rect x="265" y="255" width="10" height="10" transform="rotate(0,270,260)"/><rect x="265" y="265" width="10" height="10" transform="rotate(0,270,270)"/><rect x="265" y="275" width="10" height="10" transform="rotate(0,270,280)"/><rect x="265" y="285" width="10" height="10" transform="rotate(0,270,290)"/><rect x="265" y="295" width="10" height="10" transform="rotate(0,270,300)"/><rect x="265" y="305" width="10" height="10" transform="rotate(0,270,310)"/><rect x="265" y="315" width="10" height="10" transform="rotate(0,270,320)"/><rect x="265" y="335" width="10" height="10" transform="rotate(0,270,340)"/><rect x="265" y="345" width="10" height="10" transform="rotate(0,270,350)"/><rect x="265" y="355" width="10" height="10" transform="rotate(0,270,360)"/><rect x="265" y="365" width="10" height="10" transform="rotate(0,270,370)"/><rect x="265" y="385" width="10" height="10" transform="rotate(0,270,390)"/><rect x="265" y="395" width="10" height="10" transform="rotate(0,270,400)"/><rect x="265" y="405" width="10" height="10" transform="rotate(0,270,410)"/><rect x="265" y="415" width="10" height="10" transform="rotate(0,270,420)"/><rect x="265" y="425" width="10" height="10" transform="rotate(0,270,430)"/><rect x="265" y="435" width="10" height="10" transform="rotate(0,270,440)"/><rect x="265" y="455" width="10" height="10" transform="rotate(0,270,460)"/><rect x="275" y="25" width="10" height="10" transform="rotate(0,280,30)"/><rect x="275" y="55" width="10" height="10" transform="rotate(0,280,60)"/><rect x="275" y="75" width="10" height="10" transform="rotate(0,280,80)"/><rect x="275" y="95" width="10" height="10" transform="rotate(0,280,100)"/><rect x="275" y="105" width="10" height="10" transform="rotate(0,280,110)"/><rect x="275" y="135" width="10" height="10" transform="rotate(0,280,140)"/><rect x="275" y="155" width="10" height="10" transform="rotate(0,280,160)"/><rect x="275" y="165" width="10" height="10" transform="rotate(0,280,170)"/><rect x="275" y="175" width="10" height="10" transform="rotate(0,280,180)"/><rect x="275" y="225" width="10" height="10" transform="rotate(0,280,230)"/><rect x="275" y="285" width="10" height="10" transform="rotate(0,280,290)"/><rect x="275" y="315" width="10" height="10" transform="rotate(0,280,320)"/><rect x="275" y="335" width="10" height="10" transform="rotate(0,280,340)"/><rect x="275" y="345" width="10" height="10" transform="rotate(0,280,350)"/><rect x="275" y="355" width="10" height="10" transform="rotate(0,280,360)"/><rect x="275" y="365" width="10" height="10" transform="rotate(0,280,370)"/><rect x="275" y="375" width="10" height="10" transform="rotate(0,280,380)"/><rect x="275" y="395" width="10" height="10" transform="rotate(0,280,400)"/><rect x="275" y="405" width="10" height="10" transform="rotate(0,280,410)"/><rect x="275" y="425" width="10" height="10" transform="rotate(0,280,430)"/><rect x="275" y="465" width="10" height="10" transform="rotate(0,280,470)"/><rect x="285" y="35" width="10" height="10" transform="rotate(0,290,40)"/><rect x="285" y="55" width="10" height="10" transform="rotate(0,290,60)"/><rect x="285" y="75" width="10" height="10" transform="rotate(0,290,80)"/><rect x="285" y="85" width="10" height="10" transform="rotate(0,290,90)"/><rect x="285" y="125" width="10" height="10" transform="rotate(0,290,130)"/><rect x="285" y="145" width="10" height="10" transform="rotate(0,290,150)"/><rect x="285" y="165" width="10" height="10" transform="rotate(0,290,170)"/><rect x="285" y="195" width="10" height="10" transform="rotate(0,290,200)"/><rect x="285" y="225" width="10" height="10" transform="rotate(0,290,230)"/><rect x="285" y="255" width="10" height="10" transform="rotate(0,290,260)"/><rect x="285" y="265" width="10" height="10" transform="rotate(0,290,270)"/><rect x="285" y="295" width="10" height="10" transform="rotate(0,290,300)"/><rect x="285" y="315" width="10" height="10" transform="rotate(0,290,320)"/><rect x="285" y="335" width="10" height="10" transform="rotate(0,290,340)"/><rect x="285" y="345" width="10" height="10" transform="rotate(0,290,350)"/><rect x="285" y="385" width="10" height="10" transform="rotate(0,290,390)"/><rect x="285" y="395" width="10" height="10" transform="rotate(0,290,400)"/><rect x="285" y="415" width="10" height="10" transform="rotate(0,290,420)"/><rect x="285" y="425" width="10" height="10" transform="rotate(0,290,430)"/><rect x="285" y="445" width="10" height="10" transform="rotate(0,290,450)"/><rect x="285" y="455" width="10" height="10" transform="rotate(0,290,460)"/><rect x="295" y="25" width="10" height="10" transform="rotate(0,300,30)"/><rect x="295" y="45" width="10" height="10" transform="rotate(0,300,50)"/><rect x="295" y="65" width="10" height="10" transform="rotate(0,300,70)"/><rect x="295" y="95" width="10" height="10" transform="rotate(0,300,100)"/><rect x="295" y="145" width="10" height="10" transform="rotate(0,300,150)"/><rect x="295" y="155" width="10" height="10" transform="rotate(0,300,160)"/><rect x="295" y="195" width="10" height="10" transform="rotate(0,300,200)"/><rect x="295" y="205" width="10" height="10" transform="rotate(0,300,210)"/><rect x="295" y="225" width="10" height="10" transform="rotate(0,300,230)"/><rect x="295" y="235" width="10" height="10" transform="rotate(0,300,240)"/><rect x="295" y="255" width="10" height="10" transform="rotate(0,300,260)"/><rect x="295" y="265" width="10" height="10" transform="rotate(0,300,270)"/><rect x="295" y="285" width="10" height="10" transform="rotate(0,300,290)"/><rect x="295" y="305" width="10" height="10" transform="rotate(0,300,310)"/><rect x="295" y="315" width="10" height="10" transform="rotate(0,300,320)"/><rect x="295" y="335" width="10" height="10" transform="rotate(0,300,340)"/><rect x="295" y="345" width="10" height="10" transform="rotate(0,300,350)"/><rect x="295" y="365" width="10" height="10" transform="rotate(0,300,370)"/><rect x="295" y="385" width="10" height="10" transform="rotate(0,300,390)"/><rect x="295" y="395" width="10" height="10" transform="rotate(0,300,400)"/><rect x="295" y="405" width="10" height="10" transform="rotate(0,300,410)"/><rect x="295" y="465" width="10" height="10" transform="rotate(0,300,470)"/><rect x="305" y="25" width="10" height="10" transform="rotate(0,310,30)"/><rect x="305" y="35" width="10" height="10" transform="rotate(0,310,40)"/><rect x="305" y="45" width="10" height="10" transform="rotate(0,310,50)"/><rect x="305" y="85" width="10" height="10" transform="rotate(0,310,90)"/><rect x="305" y="105" width="10" height="10" transform="rotate(0,310,110)"/><rect x="305" y="135" width="10" height="10" transform="rotate(0,310,140)"/><rect x="305" y="155" width="10" height="10" transform="rotate(0,310,160)"/><rect x="305" y="165" width="10" height="10" transform="rotate(0,310,170)"/><rect x="305" y="175" width="10" height="10" transform="rotate(0,310,180)"/><rect x="305" y="205" width="10" height="10" transform="rotate(0,310,210)"/><rect x="305" y="225" width="10" height="10" transform="rotate(0,310,230)"/><rect x="305" y="235" width="10" height="10" transform="rotate(0,310,240)"/><rect x="305" y="245" width="10" height="10" transform="rotate(0,310,250)"/><rect x="305" y="255" width="10" height="10" transform="rotate(0,310,260)"/><rect x="305" y="285" width="10" height="10" transform="rotate(0,310,290)"/><rect x="305" y="315" width="10" height="10" transform="rotate(0,310,320)"/><rect x="305" y="325" width="10" height="10" transform="rotate(0,310,330)"/><rect x="305" y="345" width="10" height="10" transform="rotate(0,310,350)"/><rect x="305" y="365" width="10" height="10" transform="rotate(0,310,370)"/><rect x="305" y="385" width="10" height="10" transform="rotate(0,310,390)"/><rect x="305" y="395" width="10" height="10" transform="rotate(0,310,400)"/><rect x="305" y="405" width="10" height="10" transform="rotate(0,310,410)"/><rect x="305" y="425" width="10" height="10" transform="rotate(0,310,430)"/><rect x="315" y="25" width="10" height="10" transform="rotate(0,320,30)"/><rect x="315" y="45" width="10" height="10" transform="rotate(0,320,50)"/><rect x="315" y="75" width="10" height="10" transform="rotate(0,320,80)"/><rect x="315" y="95" width="10" height="10" transform="rotate(0,320,100)"/><rect x="315" y="115" width="10" height="10" transform="rotate(0,320,120)"/><rect x="315" y="125" width="10" height="10" transform="rotate(0,320,130)"/><rect x="315" y="155" width="10" height="10" transform="rotate(0,320,160)"/><rect x="315" y="175" width="10" height="10" transform="rotate(0,320,180)"/><rect x="315" y="185" width="10" height="10" transform="rotate(0,320,190)"/><rect x="315" y="195" width="10" height="10" transform="rotate(0,320,200)"/><rect x="315" y="205" width="10" height="10" transform="rotate(0,320,210)"/><rect x="315" y="215" width="10" height="10" transform="rotate(0,320,220)"/><rect x="315" y="275" width="10" height="10" transform="rotate(0,320,280)"/><rect x="315" y="285" width="10" height="10" transform="rotate(0,320,290)"/><rect x="315" y="295" width="10" height="10" transform="rotate(0,320,300)"/><rect x="315" y="315" width="10" height="10" transform="rotate(0,320,320)"/><rect x="315" y="335" width="10" height="10" transform="rotate(0,320,340)"/><rect x="315" y="345" width="10" height="10" transform="rotate(0,320,350)"/><rect x="315" y="375" width="10" height="10" transform="rotate(0,320,380)"/><rect x="315" y="395" width="10" height="10" transform="rotate(0,320,400)"/><rect x="315" y="415" width="10" height="10" transform="rotate(0,320,420)"/><rect x="315" y="435" width="10" height="10" transform="rotate(0,320,440)"/><rect x="315" y="455" width="10" height="10" transform="rotate(0,320,460)"/><rect x="325" y="35" width="10" height="10" transform="rotate(0,330,40)"/><rect x="325" y="65" width="10" height="10" transform="rotate(0,330,70)"/><rect x="325" y="85" width="10" height="10" transform="rotate(0,330,90)"/><rect x="325" y="95" width="10" height="10" transform="rotate(0,330,100)"/><rect x="325" y="135" width="10" height="10" transform="rotate(0,330,140)"/><rect x="325" y="185" width="10" height="10" transform="rotate(0,330,190)"/><rect x="325" y="195" width="10" height="10" transform="rotate(0,330,200)"/><rect x="325" y="205" width="10" height="10" transform="rotate(0,330,210)"/><rect x="325" y="215" width="10" height="10" transform="rotate(0,330,220)"/><rect x="325" y="225" width="10" height="10" transform="rotate(0,330,230)"/><rect x="325" y="245" width="10" height="10" transform="rotate(0,330,250)"/><rect x="325" y="255" width="10" height="10" transform="rotate(0,330,260)"/><rect x="325" y="275" width="10" height="10" transform="rotate(0,330,280)"/><rect x="325" y="305" width="10" height="10" transform="rotate(0,330,310)"/><rect x="325" y="315" width="10" height="10" transform="rotate(0,330,320)"/><rect x="325" y="335" width="10" height="10" transform="rotate(0,330,340)"/><rect x="325" y="345" width="10" height="10" transform="rotate(0,330,350)"/><rect x="325" y="395" width="10" height="10" transform="rotate(0,330,400)"/><rect x="325" y="405" width="10" height="10" transform="rotate(0,330,410)"/><rect x="325" y="415" width="10" height="10" transform="rotate(0,330,420)"/><rect x="325" y="435" width="10" height="10" transform="rotate(0,330,440)"/><rect x="325" y="455" width="10" height="10" transform="rotate(0,330,460)"/><rect x="325" y="465" width="10" height="10" transform="rotate(0,330,470)"/><rect x="335" y="25" width="10" height="10" transform="rotate(0,340,30)"/><rect x="335" y="55" width="10" height="10" transform="rotate(0,340,60)"/><rect x="335" y="65" width="10" height="10" transform="rotate(0,340,70)"/><rect x="335" y="75" width="10" height="10" transform="rotate(0,340,80)"/><rect x="335" y="95" width="10" height="10" transform="rotate(0,340,100)"/><rect x="335" y="105" width="10" height="10" transform="rotate(0,340,110)"/><rect x="335" y="125" width="10" height="10" transform="rotate(0,340,130)"/><rect x="335" y="155" width="10" height="10" transform="rotate(0,340,160)"/><rect x="335" y="175" width="10" height="10" transform="rotate(0,340,180)"/><rect x="335" y="185" width="10" height="10" transform="rotate(0,340,190)"/><rect x="335" y="195" width="10" height="10" transform="rotate(0,340,200)"/><rect x="335" y="205" width="10" height="10" transform="rotate(0,340,210)"/><rect x="335" y="235" width="10" height="10" transform="rotate(0,340,240)"/><rect x="335" y="275" width="10" height="10" transform="rotate(0,340,280)"/><rect x="335" y="285" width="10" height="10" transform="rotate(0,340,290)"/><rect x="335" y="295" width="10" height="10" transform="rotate(0,340,300)"/><rect x="335" y="345" width="10" height="10" transform="rotate(0,340,350)"/><rect x="335" y="355" width="10" height="10" transform="rotate(0,340,360)"/><rect x="335" y="365" width="10" height="10" transform="rotate(0,340,370)"/><rect x="335" y="385" width="10" height="10" transform="rotate(0,340,390)"/><rect x="335" y="395" width="10" height="10" transform="rotate(0,340,400)"/><rect x="335" y="405" width="10" height="10" transform="rotate(0,340,410)"/><rect x="335" y="415" width="10" height="10" transform="rotate(0,340,420)"/><rect x="335" y="425" width="10" height="10" transform="rotate(0,340,430)"/><rect x="345" y="25" width="10" height="10" transform="rotate(0,350,30)"/><rect x="345" y="35" width="10" height="10" transform="rotate(0,350,40)"/><rect x="345" y="65" width="10" height="10" transform="rotate(0,350,70)"/><rect x="345" y="85" width="10" height="10" transform="rotate(0,350,90)"/><rect x="345" y="115" width="10" height="10" transform="rotate(0,350,120)"/><rect x="345" y="125" width="10" height="10" transform="rotate(0,350,130)"/><rect x="345" y="135" width="10" height="10" transform="rotate(0,350,140)"/><rect x="345" y="145" width="10" height="10" transform="rotate(0,350,150)"/><rect x="345" y="165" width="10" height="10" transform="rotate(0,350,170)"/><rect x="345" y="175" width="10" height="10" transform="rotate(0,350,180)"/><rect x="345" y="195" width="10" height="10" transform="rotate(0,350,200)"/><rect x="345" y="215" width="10" height="10" transform="rotate(0,350,220)"/><rect x="345" y="235" width="10" height="10" transform="rotate(0,350,240)"/><rect x="345" y="245" width="10" height="10" transform="rotate(0,350,250)"/><rect x="345" y="255" width="10" height="10" transform="rotate(0,350,260)"/><rect x="345" y="275" width="10" height="10" transform="rotate(0,350,280)"/><rect x="345" y="295" width="10" height="10" transform="rotate(0,350,300)"/><rect x="345" y="305" width="10" height="10" transform="rotate(0,350,310)"/><rect x="345" y="335" width="10" height="10" transform="rotate(0,350,340)"/><rect x="345" y="375" width="10" height="10" transform="rotate(0,350,380)"/><rect x="345" y="395" width="10" height="10" transform="rotate(0,350,400)"/><rect x="345" y="415" width="10" height="10" transform="rotate(0,350,420)"/><rect x="345" y="455" width="10" height="10" transform="rotate(0,350,460)"/><rect x="345" y="465" width="10" height="10" transform="rotate(0,350,470)"/><rect x="355" y="25" width="10" height="10" transform="rotate(0,360,30)"/><rect x="355" y="45" width="10" height="10" transform="rotate(0,360,50)"/><rect x="355" y="75" width="10" height="10" transform="rotate(0,360,80)"/><rect x="355" y="105" width="10" height="10" transform="rotate(0,360,110)"/><rect x="355" y="115" width="10" height="10" transform="rotate(0,360,120)"/><rect x="355" y="135" width="10" height="10" transform="rotate(0,360,140)"/><rect x="355" y="175" width="10" height="10" transform="rotate(0,360,180)"/><rect x="355" y="195" width="10" height="10" transform="rotate(0,360,200)"/><rect x="355" y="215" width="10" height="10" transform="rotate(0,360,220)"/><rect x="355" y="225" width="10" height="10" transform="rotate(0,360,230)"/><rect x="355" y="235" width="10" height="10" transform="rotate(0,360,240)"/><rect x="355" y="255" width="10" height="10" transform="rotate(0,360,260)"/><rect x="355" y="275" width="10" height="10" transform="rotate(0,360,280)"/><rect x="355" y="295" width="10" height="10" transform="rotate(0,360,300)"/><rect x="355" y="305" width="10" height="10" transform="rotate(0,360,310)"/><rect x="355" y="315" width="10" height="10" transform="rotate(0,360,320)"/><rect x="355" y="375" width="10" height="10" transform="rotate(0,360,380)"/><rect x="355" y="435" width="10" height="10" transform="rotate(0,360,440)"/><rect x="355" y="455" width="10" height="10" transform="rotate(0,360,460)"/><rect x="355" y="465" width="10" height="10" transform="rotate(0,360,470)"/><rect x="365" y="65" width="10" height="10" transform="rotate(0,370,70)"/><rect x="365" y="85" width="10" height="10" transform="rotate(0,370,90)"/><rect x="365" y="95" width="10" height="10" transform="rotate(0,370,100)"/><rect x="365" y="125" width="10" height="10" transform="rotate(0,370,130)"/><rect x="365" y="135" width="10" height="10" transform="rotate(0,370,140)"/><rect x="365" y="155" width="10" height="10" transform="rotate(0,370,160)"/><rect x="365" y="165" width="10" height="10" transform="rotate(0,370,170)"/><rect x="365" y="175" width="10" height="10" transform="rotate(0,370,180)"/><rect x="365" y="185" width="10" height="10" transform="rotate(0,370,190)"/><rect x="365" y="195" width="10" height="10" transform="rotate(0,370,200)"/><rect x="365" y="205" width="10" height="10" transform="rotate(0,370,210)"/><rect x="365" y="215" width="10" height="10" transform="rotate(0,370,220)"/><rect x="365" y="225" width="10" height="10" transform="rotate(0,370,230)"/><rect x="365" y="265" width="10" height="10" transform="rotate(0,370,270)"/><rect x="365" y="295" width="10" height="10" transform="rotate(0,370,300)"/><rect x="365" y="305" width="10" height="10" transform="rotate(0,370,310)"/><rect x="365" y="335" width="10" height="10" transform="rotate(0,370,340)"/><rect x="365" y="345" width="10" height="10" transform="rotate(0,370,350)"/><rect x="365" y="365" width="10" height="10" transform="rotate(0,370,370)"/><rect x="365" y="385" width="10" height="10" transform="rotate(0,370,390)"/><rect x="365" y="405" width="10" height="10" transform="rotate(0,370,410)"/><rect x="365" y="415" width="10" height="10" transform="rotate(0,370,420)"/><rect x="365" y="435" width="10" height="10" transform="rotate(0,370,440)"/><rect x="365" y="465" width="10" height="10" transform="rotate(0,370,470)"/><rect x="375" y="35" width="10" height="10" transform="rotate(0,380,40)"/><rect x="375" y="45" width="10" height="10" transform="rotate(0,380,50)"/><rect x="375" y="55" width="10" height="10" transform="rotate(0,380,60)"/><rect x="375" y="65" width="10" height="10" transform="rotate(0,380,70)"/><rect x="375" y="95" width="10" height="10" transform="rotate(0,380,100)"/><rect x="375" y="105" width="10" height="10" transform="rotate(0,380,110)"/><rect x="375" y="145" width="10" height="10" transform="rotate(0,380,150)"/><rect x="375" y="185" width="10" height="10" transform="rotate(0,380,190)"/><rect x="375" y="225" width="10" height="10" transform="rotate(0,380,230)"/><rect x="375" y="275" width="10" height="10" transform="rotate(0,380,280)"/><rect x="375" y="285" width="10" height="10" transform="rotate(0,380,290)"/><rect x="375" y="295" width="10" height="10" transform="rotate(0,380,300)"/><rect x="375" y="305" width="10" height="10" transform="rotate(0,380,310)"/><rect x="375" y="355" width="10" height="10" transform="rotate(0,380,360)"/><rect x="375" y="365" width="10" height="10" transform="rotate(0,380,370)"/><rect x="375" y="375" width="10" height="10" transform="rotate(0,380,380)"/><rect x="375" y="385" width="10" height="10" transform="rotate(0,380,390)"/><rect x="375" y="415" width="10" height="10" transform="rotate(0,380,420)"/><rect x="375" y="435" width="10" height="10" transform="rotate(0,380,440)"/><rect x="375" y="455" width="10" height="10" transform="rotate(0,380,460)"/><rect x="385" y="25" width="10" height="10" transform="rotate(0,390,30)"/><rect x="385" y="55" width="10" height="10" transform="rotate(0,390,60)"/><rect x="385" y="65" width="10" height="10" transform="rotate(0,390,70)"/><rect x="385" y="85" width="10" height="10" transform="rotate(0,390,90)"/><rect x="385" y="105" width="10" height="10" transform="rotate(0,390,110)"/><rect x="385" y="135" width="10" height="10" transform="rotate(0,390,140)"/><rect x="385" y="155" width="10" height="10" transform="rotate(0,390,160)"/><rect x="385" y="165" width="10" height="10" transform="rotate(0,390,170)"/><rect x="385" y="225" width="10" height="10" transform="rotate(0,390,230)"/><rect x="385" y="235" width="10" height="10" transform="rotate(0,390,240)"/><rect x="385" y="245" width="10" height="10" transform="rotate(0,390,250)"/><rect x="385" y="255" width="10" height="10" transform="rotate(0,390,260)"/><rect x="385" y="265" width="10" height="10" transform="rotate(0,390,270)"/><rect x="385" y="275" width="10" height="10" transform="rotate(0,390,280)"/><rect x="385" y="285" width="10" height="10" transform="rotate(0,390,290)"/><rect x="385" y="295" width="10" height="10" transform="rotate(0,390,300)"/><rect x="385" y="305" width="10" height="10" transform="rotate(0,390,310)"/><rect x="385" y="335" width="10" height="10" transform="rotate(0,390,340)"/><rect x="385" y="345" width="10" height="10" transform="rotate(0,390,350)"/><rect x="385" y="365" width="10" height="10" transform="rotate(0,390,370)"/><rect x="385" y="385" width="10" height="10" transform="rotate(0,390,390)"/><rect x="385" y="395" width="10" height="10" transform="rotate(0,390,400)"/><rect x="385" y="405" width="10" height="10" transform="rotate(0,390,410)"/><rect x="385" y="415" width="10" height="10" transform="rotate(0,390,420)"/><rect x="385" y="425" width="10" height="10" transform="rotate(0,390,430)"/><rect x="385" y="455" width="10" height="10" transform="rotate(0,390,460)"/><rect x="395" y="105" width="10" height="10" transform="rotate(0,400,110)"/><rect x="395" y="115" width="10" height="10" transform="rotate(0,400,120)"/><rect x="395" y="135" width="10" height="10" transform="rotate(0,400,140)"/><rect x="395" y="145" width="10" height="10" transform="rotate(0,400,150)"/><rect x="395" y="155" width="10" height="10" transform="rotate(0,400,160)"/><rect x="395" y="165" width="10" height="10" transform="rotate(0,400,170)"/><rect x="395" y="175" width="10" height="10" transform="rotate(0,400,180)"/><rect x="395" y="205" width="10" height="10" transform="rotate(0,400,210)"/><rect x="395" y="215" width="10" height="10" transform="rotate(0,400,220)"/><rect x="395" y="225" width="10" height="10" transform="rotate(0,400,230)"/><rect x="395" y="265" width="10" height="10" transform="rotate(0,400,270)"/><rect x="395" y="285" width="10" height="10" transform="rotate(0,400,290)"/><rect x="395" y="295" width="10" height="10" transform="rotate(0,400,300)"/><rect x="395" y="315" width="10" height="10" transform="rotate(0,400,320)"/><rect x="395" y="335" width="10" height="10" transform="rotate(0,400,340)"/><rect x="395" y="365" width="10" height="10" transform="rotate(0,400,370)"/><rect x="395" y="385" width="10" height="10" transform="rotate(0,400,390)"/><rect x="395" y="425" width="10" height="10" transform="rotate(0,400,430)"/><rect x="395" y="435" width="10" height="10" transform="rotate(0,400,440)"/><rect x="395" y="465" width="10" height="10" transform="rotate(0,400,470)"/><rect x="405" y="105" width="10" height="10" transform="rotate(0,410,110)"/><rect x="405" y="135" width="10" height="10" transform="rotate(0,410,140)"/><rect x="405" y="155" width="10" height="10" transform="rotate(0,410,160)"/><rect x="405" y="165" width="10" height="10" transform="rotate(0,410,170)"/><rect x="405" y="175" width="10" height="10" transform="rotate(0,410,180)"/><rect x="405" y="215" width="10" height="10" transform="rotate(0,410,220)"/><rect x="405" y="225" width="10" height="10" transform="rotate(0,410,230)"/><rect x="405" y="245" width="10" height="10" transform="rotate(0,410,250)"/><rect x="405" y="265" width="10" height="10" transform="rotate(0,410,270)"/><rect x="405" y="275" width="10" height="10" transform="rotate(0,410,280)"/><rect x="405" y="335" width="10" height="10" transform="rotate(0,410,340)"/><rect x="405" y="355" width="10" height="10" transform="rotate(0,410,360)"/><rect x="405" y="385" width="10" height="10" transform="rotate(0,410,390)"/><rect x="405" y="405" width="10" height="10" transform="rotate(0,410,410)"/><rect x="405" y="425" width="10" height="10" transform="rotate(0,410,430)"/><rect x="405" y="435" width="10" height="10" transform="rotate(0,410,440)"/><rect x="415" y="105" width="10" height="10" transform="rotate(0,420,110)"/><rect x="415" y="115" width="10" height="10" transform="rotate(0,420,120)"/><rect x="415" y="125" width="10" height="10" transform="rotate(0,420,130)"/><rect x="415" y="155" width="10" height="10" transform="rotate(0,420,160)"/><rect x="415" y="195" width="10" height="10" transform="rotate(0,420,200)"/><rect x="415" y="205" width="10" height="10" transform="rotate(0,420,210)"/><rect x="415" y="215" width="10" height="10" transform="rotate(0,420,220)"/><rect x="415" y="225" width="10" height="10" transform="rotate(0,420,230)"/><rect x="415" y="265" width="10" height="10" transform="rotate(0,420,270)"/><rect x="415" y="285" width="10" height="10" transform="rotate(0,420,290)"/><rect x="415" y="305" width="10" height="10" transform="rotate(0,420,310)"/><rect x="415" y="345" width="10" height="10" transform="rotate(0,420,350)"/><rect x="415" y="365" width="10" height="10" transform="rotate(0,420,370)"/><rect x="415" y="375" width="10" height="10" transform="rotate(0,420,380)"/><rect x="415" y="385" width="10" height="10" transform="rotate(0,420,390)"/><rect x="415" y="425" width="10" height="10" transform="rotate(0,420,430)"/><rect x="425" y="115" width="10" height="10" transform="rotate(0,430,120)"/><rect x="425" y="135" width="10" height="10" transform="rotate(0,430,140)"/><rect x="425" y="205" width="10" height="10" transform="rotate(0,430,210)"/><rect x="425" y="225" width="10" height="10" transform="rotate(0,430,230)"/><rect x="425" y="235" width="10" height="10" transform="rotate(0,430,240)"/><rect x="425" y="245" width="10" height="10" transform="rotate(0,430,250)"/><rect x="425" y="255" width="10" height="10" transform="rotate(0,430,260)"/><rect x="425" y="265" width="10" height="10" transform="rotate(0,430,270)"/><rect x="425" y="295" width="10" height="10" transform="rotate(0,430,300)"/><rect x="425" y="345" width="10" height="10" transform="rotate(0,430,350)"/><rect x="425" y="355" width="10" height="10" transform="rotate(0,430,360)"/><rect x="425" y="365" width="10" height="10" transform="rotate(0,430,370)"/><rect x="425" y="385" width="10" height="10" transform="rotate(0,430,390)"/><rect x="425" y="395" width="10" height="10" transform="rotate(0,430,400)"/><rect x="425" y="405" width="10" height="10" transform="rotate(0,430,410)"/><rect x="425" y="415" width="10" height="10" transform="rotate(0,430,420)"/><rect x="425" y="425" width="10" height="10" transform="rotate(0,430,430)"/><rect x="425" y="455" width="10" height="10" transform="rotate(0,430,460)"/><rect x="425" y="465" width="10" height="10" transform="rotate(0,430,470)"/><rect x="435" y="105" width="10" height="10" transform="rotate(0,440,110)"/><rect x="435" y="115" width="10" height="10" transform="rotate(0,440,120)"/><rect x="435" y="125" width="10" height="10" transform="rotate(0,440,130)"/><rect x="435" y="135" width="10" height="10" transform="rotate(0,440,140)"/><rect x="435" y="145" width="10" height="10" transform="rotate(0,440,150)"/><rect x="435" y="165" width="10" height="10" transform="rotate(0,440,170)"/><rect x="435" y="175" width="10" height="10" transform="rotate(0,440,180)"/><rect x="435" y="185" width="10" height="10" transform="rotate(0,440,190)"/><rect x="435" y="215" width="10" height="10" transform="rotate(0,440,220)"/><rect x="435" y="225" width="10" height="10" transform="rotate(0,440,230)"/><rect x="435" y="245" width="10" height="10" transform="rotate(0,440,250)"/><rect x="435" y="285" width="10" height="10" transform="rotate(0,440,290)"/><rect x="435" y="295" width="10" height="10" transform="rotate(0,440,300)"/><rect x="435" y="305" width="10" height="10" transform="rotate(0,440,310)"/><rect x="435" y="315" width="10" height="10" transform="rotate(0,440,320)"/><rect x="435" y="355" width="10" height="10" transform="rotate(0,440,360)"/><rect x="435" y="385" width="10" height="10" transform="rotate(0,440,390)"/><rect x="435" y="395" width="10" height="10" transform="rotate(0,440,400)"/><rect x="435" y="405" width="10" height="10" transform="rotate(0,440,410)"/><rect x="435" y="425" width="10" height="10" transform="rotate(0,440,430)"/><rect x="435" y="435" width="10" height="10" transform="rotate(0,440,440)"/><rect x="435" y="445" width="10" height="10" transform="rotate(0,440,450)"/><rect x="435" y="465" width="10" height="10" transform="rotate(0,440,470)"/><rect x="445" y="125" width="10" height="10" transform="rotate(0,450,130)"/><rect x="445" y="145" width="10" height="10" transform="rotate(0,450,150)"/><rect x="445" y="175" width="10" height="10" transform="rotate(0,450,180)"/><rect x="445" y="205" width="10" height="10" transform="rotate(0,450,210)"/><rect x="445" y="245" width="10" height="10" transform="rotate(0,450,250)"/><rect x="445" y="265" width="10" height="10" transform="rotate(0,450,270)"/><rect x="445" y="275" width="10" height="10" transform="rotate(0,450,280)"/><rect x="445" y="295" width="10" height="10" transform="rotate(0,450,300)"/><rect x="445" y="335" width="10" height="10" transform="rotate(0,450,340)"/><rect x="445" y="385" width="10" height="10" transform="rotate(0,450,390)"/><rect x="445" y="405" width="10" height="10" transform="rotate(0,450,410)"/><rect x="445" y="415" width="10" height="10" transform="rotate(0,450,420)"/><rect x="445" y="425" width="10" height="10" transform="rotate(0,450,430)"/><rect x="445" y="455" width="10" height="10" transform="rotate(0,450,460)"/><rect x="445" y="465" width="10" height="10" transform="rotate(0,450,470)"/><rect x="455" y="105" width="10" height="10" transform="rotate(0,460,110)"/><rect x="455" y="115" width="10" height="10" transform="rotate(0,460,120)"/><rect x="455" y="135" width="10" height="10" transform="rotate(0,460,140)"/><rect x="455" y="145" width="10" height="10" transform="rotate(0,460,150)"/><rect x="455" y="165" width="10" height="10" transform="rotate(0,460,170)"/><rect x="455" y="185" width="10" height="10" transform="rotate(0,460,190)"/><rect x="455" y="195" width="10" height="10" transform="rotate(0,460,200)"/><rect x="455" y="205" width="10" height="10" transform="rotate(0,460,210)"/><rect x="455" y="225" width="10" height="10" transform="rotate(0,460,230)"/><rect x="455" y="255" width="10" height="10" transform="rotate(0,460,260)"/><rect x="455" y="275" width="10" height="10" transform="rotate(0,460,280)"/><rect x="455" y="285" width="10" height="10" transform="rotate(0,460,290)"/><rect x="455" y="295" width="10" height="10" transform="rotate(0,460,300)"/><rect x="455" y="305" width="10" height="10" transform="rotate(0,460,310)"/><rect x="455" y="325" width="10" height="10" transform="rotate(0,460,330)"/><rect x="455" y="345" width="10" height="10" transform="rotate(0,460,350)"/><rect x="455" y="375" width="10" height="10" transform="rotate(0,460,380)"/><rect x="455" y="395" width="10" height="10" transform="rotate(0,460,400)"/><rect x="455" y="415" width="10" height="10" transform="rotate(0,460,420)"/><rect x="455" y="425" width="10" height="10" transform="rotate(0,460,430)"/><rect x="465" y="115" width="10" height="10" transform="rotate(0,470,120)"/><rect x="465" y="125" width="10" height="10" transform="rotate(0,470,130)"/><rect x="465" y="135" width="10" height="10" transform="rotate(0,470,140)"/><rect x="465" y="155" width="10" height="10" transform="rotate(0,470,160)"/><rect x="465" y="195" width="10" height="10" transform="rotate(0,470,200)"/><rect x="465" y="205" width="10" height="10" transform="rotate(0,470,210)"/><rect x="465" y="215" width="10" height="10" transform="rotate(0,470,220)"/><rect x="465" y="265" width="10" height="10" transform="rotate(0,470,270)"/><rect x="465" y="295" width="10" height="10" transform="rotate(0,470,300)"/><rect x="465" y="315" width="10" height="10" transform="rotate(0,470,320)"/><rect x="465" y="335" width="10" height="10" transform="rotate(0,470,340)"/><rect x="465" y="385" width="10" height="10" transform="rotate(0,470,390)"/><rect x="465" y="395" width="10" height="10" transform="rotate(0,470,400)"/><rect x="465" y="405" width="10" height="10" transform="rotate(0,470,410)"/><rect x="465" y="415" width="10" height="10" transform="rotate(0,470,420)"/><rect x="465" y="425" width="10" height="10" transform="rotate(0,470,430)"/><rect x="465" y="435" width="10" height="10" transform="rotate(0,470,440)"/><rect x="465" y="455" width="10" height="10" transform="rotate(0,470,460)"/></clipPath><clipPath id="clip-path-corners-square-color-0-0"><path clip-rule="evenodd" d="M 25 25v 70h 70v -70zM 35 35h 50v 50h -50z" transform="rotate(0,60,60)"/></clipPath><clipPath id="clip-path-corners-dot-color-0-0"><rect x="45" y="45" width="30" height="30" transform="rotate(0,60,60)"/></clipPath><clipPath id="clip-path-corners-square-color-1-0"><path clip-rule="evenodd" d="M 405 25v 70h 70v -70zM 415 35h 50v 50h -50z" transform="rotate(90,440,60)"/></clipPath><clipPath id="clip-path-corners-dot-color-1-0"><rect x="425" y="45" width="30" height="30" transform="rotate(90,440,60)"/></clipPath><clipPath id="clip-path-corners-square-color-0-1"><path clip-rule="evenodd" d="M 25 405v 70h 70v -70zM 35 415h 50v 50h -50z" transform="rotate(-90,60,440)"/></clipPath><clipPath id="clip-path-corners-dot-color-0-1"><rect x="45" y="425" width="30" height="30" transform="rotate(-90,60,440)"/></clipPath></defs><rect x="0" y="0" height="500" width="500" clip-path="url('#clip-path-background-color')" fill="#fff"/><rect x="0" y="0" height="500" width="500" clip-path="url('#clip-path-dot-color')" fill="#000000"/><rect x="25" y="25" height="70" width="70" clip-path="url('#clip-path-corners-square-color-0-0')" fill="#000000"/><rect x="45" y="45" height="30" width="30" clip-path="url('#clip-path-corners-dot-color-0-0')" fill="#000000"/><rect x="405" y="25" height="70" width="70" clip-path="url('#clip-path-corners-square-color-1-0')" fill="#000000"/><rect x="425" y="45" height="30" width="30" clip-path="url('#clip-path-corners-dot-color-1-0')" fill="#000000"/><rect x="25" y="405" height="70" width="70" clip-path="url('#clip-path-corners-square-color-0-1')" fill="#000000"/><rect x="45" y="425" height="30" width="30" clip-path="url('#clip-path-corners-dot-color-0-1')" fill="#000000"/></svg>